<?xml version="1.0" standalone="no"?>
<!DOCTYPE svg PUBLIC "-//W3C//DTD SVG 1.1//EN" "http://www.w3.org/Graphics/SVG/1.1/DTD/svg11.dtd" >
<svg xmlns="http://www.w3.org/2000/svg">
<metadata></metadata>
<defs>
<font id="se_roundedmedium_italic" horiz-adv-x="1216" >
<font-face units-per-em="2048" ascent="1579" descent="-469" />
<missing-glyph horiz-adv-x="573" />
<glyph horiz-adv-x="0" />
<glyph unicode="&#xd;" horiz-adv-x="682" />
<glyph unicode=" "  horiz-adv-x="573" />
<glyph unicode="&#x09;" horiz-adv-x="573" />
<glyph unicode="&#xa0;" horiz-adv-x="573" />
<glyph unicode="!" horiz-adv-x="591" d="M145 74q0 14 2 22q9 52 52 88.5t94 36.5q44 0 73 -29t29 -73q0 -57 -45 -100.5t-102 -43.5q-44 0 -73.5 28.5t-29.5 70.5zM266 461l80 581l68 383q3 15 17.5 27t31.5 12h98q15 0 25.5 -10.5t7.5 -28.5l-68 -381l-127 -583q-3 -18 -17 -30.5t-32 -12.5h-49q-35 0 -35 43z " />
<glyph unicode="&#x22;" horiz-adv-x="731" d="M260 1030l39 387l12 62q3 18 17 29.5t32 11.5h70q16 0 25.5 -13t9.5 -28l-10 -62l-99 -387q-3 -15 -16.5 -27t-28.5 -12h-18q-16 0 -24.5 11.5t-8.5 27.5zM612 1030l39 387l13 62q3 18 17 29.5t32 11.5h69q16 0 25.5 -13t9.5 -28l-10 -62l-98 -387q-3 -15 -16.5 -27 t-28.5 -12h-19q-16 0 -24.5 11.5t-8.5 27.5z" />
<glyph unicode="#" d="M115 457v35q0 19 13 32t32 13h182l76 327h-236q-19 0 -32 12.5t-13 32.5v39q0 19 13 31t32 12h267l90 395q5 14 19 25.5t30 11.5h45q18 0 27.5 -13.5t5.5 -33.5l-91 -385h308l88 391q3 15 19 28t30 13h47q18 0 27 -14t4 -33l-88 -385h166q20 0 33.5 -12t13.5 -31v-39 q0 -20 -13.5 -32.5t-33.5 -12.5h-197l-76 -327h252q20 0 32.5 -13t12.5 -32v-35q0 -20 -12.5 -33.5t-32.5 -13.5h-281l-83 -377q-3 -16 -17.5 -26.5t-30.5 -10.5h-43q-42 0 -36 45l86 369h-306l-88 -375q-3 -17 -16.5 -28t-28.5 -11h-45q-44 0 -35 43l84 371h-155 q-19 0 -32 13.5t-13 33.5zM471 537h305l76 327h-305z" />
<glyph unicode="$" horiz-adv-x="1253" d="M66 184q0 20 14 31l55 61q12 15 33 15q17 0 25 -8q154 -142 385 -142q180 0 299.5 84t119.5 217q0 91 -89.5 144.5t-293.5 89.5q-184 32 -282.5 121.5t-98.5 222.5q0 118 69 214.5t178 154t241 75.5l20 125q3 17 18 29t32 12h90q15 0 23.5 -9.5t8.5 -23.5v-8l-20 -119 q245 -19 387 -176q12 -12 12 -26q0 -19 -16 -35l-53 -55q-17 -17 -35 -17q-16 0 -29 13q-140 137 -368 137q-158 0 -264.5 -76.5t-106.5 -192.5q0 -150 295 -206q228 -42 348.5 -135t120.5 -234q0 -102 -43.5 -189.5t-119.5 -148t-176 -99t-214 -48.5l-19 -107 q-3 -18 -17 -30.5t-32 -12.5h-90q-15 0 -24 10t-9 25v8l19 109q-237 20 -383 176q-10 10 -10 24z" />
<glyph unicode="%" horiz-adv-x="1562" d="M170 936q0 67 14 141q36 205 120 296t222 91q115 0 178.5 -65.5t63.5 -196.5q0 -40 -14 -133q-36 -203 -123 -298t-228 -95q-111 0 -172 65.5t-61 194.5zM276 27q0 12 9 24l1044 1364q25 35 66 35h53q12 0 19.5 -8t7.5 -17q0 -10 -9 -22l-1042 -1366q-27 -37 -64 -37h-59 q-10 0 -17.5 8t-7.5 19zM299 950q0 -83 26.5 -121t84.5 -38q89 0 158 102.5t69 290.5q0 85 -26.5 124.5t-86.5 39.5q-87 0 -156 -104t-69 -294zM983 248q0 67 14 141q36 205 120 296t222 91q115 0 178.5 -65.5t63.5 -196.5q0 -40 -14 -133q-36 -204 -123 -298.5t-227 -94.5 q-111 0 -172.5 65.5t-61.5 194.5zM1112 262q0 -84 26.5 -122t84.5 -38q89 0 158 103t69 291q0 85 -26.5 124t-86.5 39q-40 0 -79 -24.5t-72 -71.5t-53.5 -125t-20.5 -176z" />
<glyph unicode="&#x26;" horiz-adv-x="1449" d="M133 350q0 80 26.5 147t84 126.5t119 105t159.5 105.5q-69 85 -101 148t-32 120q0 147 123.5 260t304.5 113q137 0 225 -77.5t88 -193.5q0 -118 -80.5 -209.5t-277.5 -201.5l281 -336q140 177 190 327q5 14 20 24t31 7l60 -20q22 -9 22 -41v-9q-65 -188 -229 -407 l242 -287q8 -11 8 -24q0 -11 -7.5 -19t-19.5 -8h-129q-43 0 -70 37l-133 164q-252 -226 -506 -226q-175 0 -287 108t-112 267zM322 385q0 -106 62 -175t185 -69q89 0 187 50.5t182 134.5l-322 389q-75 -45 -121 -77t-89.5 -73t-63.5 -85t-20 -95zM559 1122q0 -89 109 -223 q147 74 226 146.5t79 150.5q0 67 -41.5 102t-122.5 35q-91 0 -163 -53t-85 -131q-2 -10 -2 -27z" />
<glyph unicode="'" horiz-adv-x="376" d="M260 1030l39 387l12 62q3 18 17 29.5t32 11.5h70q16 0 25.5 -13t9.5 -28l-10 -62l-99 -387q-3 -15 -16.5 -27t-28.5 -12h-18q-16 0 -24.5 11.5t-8.5 27.5z" />
<glyph unicode="(" horiz-adv-x="624" d="M121 268q0 297 114.5 612.5t315.5 581.5q54 58 92 58h66q14 0 23 -9t9 -22q0 -12 -8 -23q-161 -198 -264 -440.5t-143 -472.5q-31 -176 -31 -334q0 -335 117 -577q2 -4 2 -13q0 -15 -13.5 -27t-31.5 -12h-66q-32 0 -51 29q-51 73 -91 287t-40 362z" />
<glyph unicode=")" horiz-adv-x="624" d="M-47 -383q0 14 8 25q161 195 263 437.5t143 473.5q28 162 28 336q0 337 -112 577q-4 8 -4 15q0 15 13.5 27t31.5 12h65q33 0 49 -29q55 -103 95 -302t40 -337q0 -293 -115.5 -615t-316.5 -591q-18 -23 -44 -39.5t-48 -16.5h-65q-14 0 -22.5 8t-8.5 19z" />
<glyph unicode="*" horiz-adv-x="1017" d="M121 1087v66q0 15 12 27t27 14l317 -20l-178 262q-7 15 -2.5 32.5t18.5 26.5l56 33q18 9 34 3.5t25 -20.5l141 -284l138 284q9 15 25.5 20.5t31.5 -3.5l57 -33q15 -9 20 -26.5t-3 -30.5l-178 -264q37 1 159 10t160 10q17 0 29 -12.5t12 -28.5v-66q0 -17 -12 -28.5 t-29 -11.5l-319 20q24 -35 98.5 -147t79.5 -119q6 -15 1 -32t-18 -24l-57 -32q-15 -9 -31 -4.5t-24 18.5l-140 287l-141 -285q-9 -15 -25.5 -20t-31.5 4l-58 32q-14 8 -18.5 24.5t2.5 31.5l178 266l-317 -20q-15 0 -27 11.5t-12 28.5z" />
<glyph unicode="+" d="M131 643v72q0 17 12 29t29 12h420v420q0 17 12 29t29 12h74q17 0 27.5 -11.5t10.5 -29.5v-420h420q17 0 30 -12t13 -29v-72q0 -18 -12.5 -29.5t-30.5 -11.5h-420v-420q0 -18 -10.5 -29.5t-27.5 -11.5h-74q-17 0 -29 12t-12 29v420h-420q-18 0 -29.5 11.5t-11.5 29.5z" />
<glyph unicode="," horiz-adv-x="485" d="M-4 -301q0 15 10 25q58 67 98.5 140t40.5 109q-4 15 -32.5 51.5t-28.5 69.5q0 49 42 92t97 43q46 0 75.5 -33t29.5 -92q0 -76 -71 -203t-181 -233q-13 -10 -27 -10q-12 0 -32.5 12.5t-20.5 28.5z" />
<glyph unicode="-" horiz-adv-x="686" d="M84 557l12 68q3 17 18 29t33 12h502q15 0 24 -9.5t9 -23.5v-8l-12 -68q-3 -19 -16.5 -31t-30.5 -12h-502q-16 0 -28 12t-9 31z" />
<glyph unicode="." horiz-adv-x="468" d="M68 74q0 12 2 18q9 51 50 85t91 34q41 0 68.5 -27.5t27.5 -68.5q0 -55 -42.5 -97.5t-96.5 -42.5q-44 0 -72 28.5t-28 70.5z" />
<glyph unicode="/" horiz-adv-x="698" d="M-96 -131q0 6 4 14l827 1596q21 41 62 41h69q12 0 22.5 -10t10.5 -23q0 -7 -4 -19l-825 -1595q-8 -18 -27 -28.5t-35 -10.5h-71q-12 0 -22.5 11t-10.5 24z" />
<glyph unicode="0" d="M119 449q0 117 28 282q68 388 226 566t418 178q211 0 322.5 -118t111.5 -360q0 -122 -27 -278q-69 -392 -227.5 -568t-421.5 -176q-209 0 -319.5 116.5t-110.5 357.5zM303 479q0 -177 62 -257.5t192 -80.5q174 0 289.5 140t169.5 444q24 138 24 244q0 177 -62.5 259.5 t-193.5 82.5q-353 0 -456 -586q-25 -147 -25 -246z" />
<glyph unicode="1" d="M344 997q0 24 21 39l503 389q32 25 56 25h8h74q15 0 24.5 -10t9.5 -25v-10l-241 -1362q-3 -19 -16.5 -31t-30.5 -12h-95q-15 0 -24.5 10t-9.5 25v8l202 1147l-372 -285q-14 -10 -31 -10q-19 0 -29 16l-43 66q-6 9 -6 20z" />
<glyph unicode="2" d="M82 35v8l16 88q5 27 31 49l762 627q131 122 131 274q0 101 -62 165.5t-172 64.5t-202.5 -64.5t-145.5 -165.5q-6 -13 -19.5 -21.5t-27.5 -8.5q-6 0 -10 2l-86 26q-21 7 -21 33q0 14 5 21q61 148 199.5 245t314.5 97q182 0 296.5 -105.5t114.5 -265.5q0 -248 -219 -430 l-618 -510h637q15 0 23.5 -9.5t8.5 -23.5v-8l-14 -80q-3 -19 -16.5 -31t-30.5 -12h-860q-15 0 -25 10t-10 25z" />
<glyph unicode="3" d="M131 240q0 14 9 26.5t24 18.5l65 32q15 5 19 5q24 0 35 -23q72 -160 252 -160q90 0 175 45.5t140 128.5t55 181q0 102 -68 160.5t-182 58.5h-69q-15 0 -26 9.5t-11 22.5q0 7 2 11l12 73q3 17 17.5 29t31.5 12h50q116 0 203 77.5t87 189.5q0 78 -50.5 126t-135.5 48 q-48 0 -92 -15t-79.5 -42.5t-54 -45.5t-42.5 -45q-12 -12 -25 -12q-10 0 -16 6l-80 47q-17 10 -17 27q0 15 11 26q163 218 401 218q155 0 259 -90t104 -224q0 -114 -64.5 -206t-167.5 -150q90 -43 136 -124.5t46 -182.5q0 -142 -78.5 -263.5t-206.5 -190.5t-272 -69 q-74 0 -137 16.5t-105 42.5t-74.5 60.5t-50.5 67t-28 65.5q-2 4 -2 13z" />
<glyph unicode="4" d="M33 391v8l12 70q0 5 1.5 9.5t4.5 9.5t5 8t7.5 9t7.5 8l8.5 8.5l8.5 8.5l883 885q35 35 76 35h69q15 0 26 -10.5t11 -24.5v-10l-158 -885h181q15 0 24.5 -11t9.5 -26v-10l-14 -76q-3 -17 -17.5 -29t-31.5 -12h-180l-56 -313q-3 -19 -16.5 -31t-30.5 -12h-94q-17 0 -27 10 t-10 25v8l55 313h-722q-14 0 -23.5 10t-9.5 25zM283 518h536l117 651q-33 -31 -653 -651z" />
<glyph unicode="5" d="M98 236q0 14 10 28.5t25 20.5l64 34q9 3 16 3q23 0 37 -21q39 -74 108.5 -118t165.5 -44q74 0 149 32t134.5 85.5t97 130t37.5 158.5q0 121 -75 192.5t-203 71.5q-170 0 -277 -84q-33 -25 -49 -25q-6 0 -10 2l-60 25q-18 9 -18 35q0 8 4 24l176 637q6 17 21 29t32 12h713 q14 0 23.5 -11.5t9.5 -29.5l-15 -80q-3 -15 -17.5 -27.5t-29.5 -12.5h-594l-108 -379q44 17 64 24t63.5 16t87.5 9q195 0 319.5 -110t124.5 -290q0 -163 -85 -301.5t-224.5 -217.5t-296.5 -79q-94 0 -171.5 24.5t-126 64.5t-78 81t-42.5 82q-2 2 -2 9z" />
<glyph unicode="6" d="M129 403q0 72 16 166q26 150 79.5 282.5t138 246t192 195.5t248.5 128.5t301 46.5q15 0 24 -9t9 -23v-9l-13 -77q-3 -17 -17.5 -29t-31.5 -12q-234 0 -405.5 -127.5t-272.5 -350.5q9 -9 13 -10q138 135 307 135q183 0 298 -111.5t115 -285.5q0 -121 -48.5 -230t-128 -186 t-184.5 -122.5t-216 -45.5q-200 0 -312 112.5t-112 315.5zM305 403q0 -121 65 -192.5t189 -71.5q97 0 186.5 50t147 143t57.5 205q0 118 -68 187t-184 69q-101 0 -190 -46t-146 -137t-57 -207z" />
<glyph unicode="7" d="M158 27q0 13 8 24l903 1235h-758q-14 0 -23 10.5t-9 24.5v8l14 80q3 17 16.5 29t30.5 12h940q15 0 25 -10t10 -25v-10l-10 -57q-1 -9 -5.5 -19.5t-8 -16.5t-10.5 -17t-9 -15l-895 -1231q-13 -19 -37.5 -34t-40.5 -15h-115q-12 0 -19 8t-7 19z" />
<glyph unicode="8" d="M139 352q0 134 84 256t223 185l3 16q-57 44 -89 108.5t-32 133.5q0 88 39 168t103 135.5t148.5 88t174.5 32.5q155 0 256.5 -89.5t101.5 -224.5q0 -104 -59.5 -196.5t-165.5 -155.5l-2 -16q82 -43 129 -128.5t47 -181.5q0 -138 -78 -256t-204.5 -185t-266.5 -67 q-181 0 -296.5 107t-115.5 270zM326 377q0 -103 62 -170.5t169 -67.5q88 0 172 46t137.5 124.5t53.5 163.5q0 102 -64.5 170t-173.5 68q-140 0 -248 -102.5t-108 -231.5zM500 1063q0 -83 50 -141t136 -58q108 0 199.5 85.5t91.5 185.5q0 79 -50.5 131.5t-138.5 52.5 q-112 0 -200 -78t-88 -178z" />
<glyph unicode="9" d="M205 23l14 75q3 17 17.5 29t29.5 12q233 0 407 129.5t273 352.5q-6 2 -12 8q-135 -135 -309 -135q-185 0 -300.5 112.5t-115.5 286.5q0 121 48 230t127.5 185.5t184.5 121.5t217 45q199 0 311.5 -115.5t112.5 -319.5q0 -80 -14 -163q-26 -150 -79.5 -282.5t-137 -245 t-191 -194t-248 -127.5t-300.5 -46q-17 0 -26 11.5t-9 29.5zM393 913q0 -119 66.5 -187.5t183.5 -68.5q100 0 190 45t148.5 134.5t58.5 203.5q0 123 -67.5 197t-192.5 74q-97 0 -185.5 -50.5t-145 -143.5t-56.5 -204z" />
<glyph unicode=":" horiz-adv-x="499" d="M86 74q0 12 2 18q9 51 50 85t91 34q41 0 69 -27.5t28 -68.5q0 -55 -43 -97.5t-97 -42.5q-44 0 -72 28.5t-28 70.5zM240 950q0 13 2 19q9 50 50 84t91 34q41 0 68.5 -27.5t27.5 -68.5q0 -55 -42.5 -97t-96.5 -42q-44 0 -72 28t-28 70z" />
<glyph unicode=";" horiz-adv-x="512" d="M10 -301q0 15 10 25q58 67 99 140t41 109q-4 16 -33 52t-29 69q0 49 42.5 92t97.5 43q46 0 75 -32.5t29 -92.5q0 -76 -71 -203t-181 -233q-13 -10 -27 -10q-12 0 -32.5 12.5t-20.5 28.5zM252 950q0 13 2 19q9 50 50 84t91 34q41 0 69 -27.5t28 -68.5q0 -55 -43 -97 t-97 -42q-44 0 -72 28t-28 70z" />
<glyph unicode="&#x3c;" d="M150 662v26q0 50 36 66q76 33 955 413q4 2 12 2q14 0 23.5 -9.5t9.5 -22.5v-82q0 -18 -11 -34t-28 -22l-764 -323l764 -324q39 -14 39 -55v-80q0 -14 -10 -24.5t-23 -10.5q-4 0 -12 4q-118 51 -446.5 194t-508.5 220q-36 15 -36 62z" />
<glyph unicode="=" d="M131 422v74q0 17 12 29t29 12h993q17 0 30 -12t13 -29v-74q0 -17 -13 -29t-30 -12h-993q-17 0 -29 12t-12 29zM131 862v74q0 17 12 29t29 12h993q17 0 30 -12t13 -29v-74q0 -17 -13 -29t-30 -12h-993q-17 0 -29 12t-12 29z" />
<glyph unicode="&#x3e;" d="M27 217v80q0 41 39 55l763 324l-763 323q-17 6 -28 22t-11 34v82q0 13 9.5 22.5t22.5 9.5q9 0 13 -2q756 -327 954 -413q37 -17 37 -66v-26q0 -47 -37 -62q-177 -76 -502.5 -218t-451.5 -196q-8 -4 -13 -4q-13 0 -22.5 10.5t-9.5 24.5z" />
<glyph unicode="?" horiz-adv-x="1056" d="M250 1296q0 27 22 41q112 68 214.5 103t224.5 35q186 0 298.5 -94t112.5 -238q0 -83 -30.5 -154.5t-99 -139.5t-150 -126.5t-211.5 -136.5l-29 -166q-3 -18 -17 -30.5t-32 -12.5h-90q-17 0 -26 9.5t-9 25.5v8l39 221q3 15 17.5 34.5t31.5 29.5q63 36 97.5 56.5t86.5 53.5 t80.5 55.5t63 54.5t52 59.5t30 60.5t12.5 67q0 90 -65 146.5t-173 56.5q-191 0 -356 -109q-17 -10 -29 -10q-20 0 -26 18l-35 64q-4 6 -4 18zM334 76q0 14 2 22q9 51 50.5 87t92.5 36q44 0 74.5 -29.5t30.5 -72.5q0 -56 -47 -100t-103 -44q-44 0 -72 29t-28 72z" />
<glyph unicode="@" horiz-adv-x="2019" d="M170 483q0 174 49.5 330.5t139.5 277.5t211 210.5t269.5 136.5t309.5 47q239 0 424.5 -94t291 -274t105.5 -419q0 -128 -35 -246.5t-97.5 -209.5t-156 -146t-202.5 -55q-81 0 -128.5 59.5t-47.5 159.5v19q0 6 -0.5 8.5t-3.5 4t-9 1.5q-145 -252 -379 -252 q-155 0 -248.5 113t-93.5 307q0 65 15.5 136t44.5 141.5t74 134t100.5 112t128.5 77t153 28.5q166 0 293 -172l19 110q5 15 17.5 26t25.5 11h69q37 0 37 -43l-106 -596q-1 -10 -7 -55.5t-6 -63.5q0 -145 89 -145q78 0 142.5 50t104.5 131t62 177.5t22 194.5 q0 290 -192 470.5t-514 180.5q-184 0 -343 -70t-268 -188.5t-171 -278.5t-62 -337q0 -179 60 -322t167.5 -236t253.5 -142.5t320 -49.5q157 0 282 29t250 79q15 5 17 5q23 0 36 -22t13 -44q0 -25 -25 -41q-135 -57 -272 -91t-305 -34q-212 0 -386 63.5t-291.5 176.5 t-182 272t-64.5 348zM739 457q0 -129 56 -198t149 -69q98 0 187.5 94.5t140.5 227t55 256.5q-96 178 -242 178q-89 0 -169.5 -68t-128.5 -181.5t-48 -239.5z" />
<glyph unicode="A" horiz-adv-x="1437" d="M-41 27q0 11 8 22l840 1360q23 41 63 41h80q18 0 32.5 -11.5t18.5 -29.5l363 -1360v-8q0 -18 -11.5 -29.5t-29.5 -11.5h-98q-39 0 -49 43l-84 334h-723l-203 -334q-25 -43 -62 -43h-114q-14 0 -22.5 7.5t-8.5 19.5zM455 524h604l-121 492q-34 141 -49 244h-8 q-2 -4 -22.5 -42t-52.5 -97t-61 -107z" />
<glyph unicode="B" horiz-adv-x="1392" d="M119 35v8l241 1366q3 17 17 29t31 12h561q165 0 265.5 -90t100.5 -227q0 -116 -69.5 -213.5t-182.5 -135.5l-2 -16q100 -27 154.5 -109.5t54.5 -183.5q0 -75 -21.5 -144t-68.5 -129.5t-114 -105t-164 -70.5t-213 -26h-555q-15 0 -25 10t-10 25zM315 162h367 q90 0 164 16.5t134.5 52t94 97t33.5 145.5q0 207 -301 207h-399zM436 842h375q146 0 244 73t98 197q0 83 -53.5 129.5t-157.5 46.5h-428z" />
<glyph unicode="C" horiz-adv-x="1441" d="M154 586q0 181 66.5 345t180 283.5t272.5 190t337 70.5q156 0 285.5 -55.5t209.5 -155.5q11 -15 11 -29q0 -19 -15 -31l-61 -51q-18 -14 -35 -14q-16 0 -25 12q-146 158 -376 158q-124 0 -244.5 -53t-214 -143.5t-151.5 -224.5t-58 -284q0 -212 120 -337.5t320 -125.5 q222 0 445 178q15 11 28 11q20 0 31 -15l53 -69q6 -9 6 -19q0 -26 -20 -39q-254 -213 -551 -213q-187 0 -328 81t-213.5 218.5t-72.5 311.5z" />
<glyph unicode="D" horiz-adv-x="1566" d="M119 41l241 1368q3 17 17 29t31 12h469q306 0 487.5 -149t181.5 -420q0 -211 -71.5 -380.5t-195 -277.5t-286 -165.5t-348.5 -57.5h-491q-16 0 -25.5 10.5t-9.5 30.5zM315 162h349q142 0 268.5 48t222.5 135t152.5 219t56.5 290q0 207 -125.5 320.5t-353.5 113.5h-371z " />
<glyph unicode="E" horiz-adv-x="1314" d="M119 35v8l241 1366q3 17 17 29t31 12h946q15 0 25 -10t10 -25v-10l-15 -80q-3 -17 -17 -27t-32 -10h-811l-82 -465h713q15 0 25 -9t10 -23v-11l-15 -75q-3 -18 -17 -30.5t-32 -12.5h-713l-88 -500h811q15 0 25 -9.5t10 -23.5v-10l-14 -80q-3 -18 -16 -28.5t-31 -10.5 h-946q-15 0 -25 10t-10 25z" />
<glyph unicode="F" horiz-adv-x="1232" d="M119 35v8l241 1366q3 17 17 29t31 12h946q15 0 25 -10t10 -25v-8l-15 -78q-3 -17 -17.5 -29t-31.5 -12h-811l-82 -465h713q15 0 25 -9t10 -23v-9l-15 -77q-3 -18 -17 -30.5t-32 -12.5h-713l-108 -619q-3 -19 -16.5 -31t-30.5 -12h-94q-15 0 -25 10t-10 25z" />
<glyph unicode="G" horiz-adv-x="1515" d="M154 590q0 181 67 345t181.5 282.5t273 188t334.5 69.5q158 0 286.5 -54.5t212.5 -156.5q9 -9 9 -23q0 -20 -13 -33l-57 -53q-18 -14 -35 -14q-15 0 -24 12q-144 156 -385 156q-123 0 -243 -52.5t-214 -143t-151.5 -224t-57.5 -283.5q0 -210 124.5 -337.5t332.5 -127.5 q222 0 419 138l54 296h-379q-15 0 -24 9.5t-9 23.5v8l12 80q3 17 18 29t32 12h512q34 0 34 -32v-9l-82 -465q-6 -39 -34 -59q-274 -197 -557 -197q-142 0 -262 47t-202 129t-127.5 195.5t-45.5 243.5z" />
<glyph unicode="H" horiz-adv-x="1556" d="M119 35v8l241 1366q3 17 17 29t31 12h94q15 0 25 -10t10 -25v-8l-103 -580h856l103 580q3 18 17 30.5t32 12.5h92q15 0 25 -10t10 -25v-8l-242 -1364q-3 -19 -16.5 -31t-30.5 -12h-92q-17 0 -27 10t-10 25v8l111 623h-856l-111 -623q-3 -19 -16.5 -31t-30.5 -12h-94 q-15 0 -25 10t-10 25z" />
<glyph unicode="I" horiz-adv-x="522" d="M119 35v8l241 1366q3 17 17 29t31 12h94q15 0 25 -10t10 -25v-8l-242 -1364q-3 -19 -16.5 -31t-30.5 -12h-94q-15 0 -25 10t-10 25z" />
<glyph unicode="J" horiz-adv-x="956" d="M-25 131q0 20 17 37l63 57q13 13 31 13q16 0 29 -13q43 -43 82 -63.5t98 -20.5q132 0 224.5 85.5t117.5 226.5l170 956q3 18 17 29.5t32 11.5h94q15 0 25 -10t10 -25v-8l-170 -965q-37 -208 -181 -337.5t-343 -129.5q-193 0 -307 134q-9 13 -9 22z" />
<glyph unicode="K" horiz-adv-x="1368" d="M119 35v8l241 1366q3 17 17 29t31 12h94q15 0 25 -10t10 -25v-8l-117 -668l856 672q42 39 84 39h135q12 0 19.5 -8t7.5 -19q0 -15 -17 -32l-776 -611l565 -717q9 -12 9 -24q0 -16 -11 -27.5t-28 -11.5h-113q-37 0 -68 39l-489 633l-217 -162l-82 -467q-3 -19 -16.5 -31 t-30.5 -12h-94q-15 0 -25 10t-10 25z" />
<glyph unicode="L" horiz-adv-x="1191" d="M119 35v8l241 1366q3 17 17 29t31 12h94q15 0 25 -10t10 -25v-8l-222 -1245h783q15 0 25 -10.5t10 -24.5v-8l-15 -78q-3 -17 -16.5 -29t-30.5 -12h-917q-15 0 -25 10t-10 25z" />
<glyph unicode="M" horiz-adv-x="1802" d="M92 31q0 6 2 10l291 1368q5 18 18.5 29.5t30.5 11.5h82q19 0 37 -12t25 -31l344 -889l655 887q15 20 37.5 32.5t40.5 12.5h98q37 0 37 -41l-193 -1368q-3 -17 -16.5 -29t-30.5 -12h-94q-37 0 -37 43l113 788q18 122 49 291h-16q-51 -69 -279.5 -383.5t-306.5 -419.5 q-13 -18 -37 -30.5t-45 -12.5h-23q-19 0 -38 12.5t-25 30.5l-305 803h-17q-33 -209 -49 -291l-168 -788q-5 -19 -18.5 -31t-30.5 -12h-96q-15 0 -25 9.5t-10 21.5z" />
<glyph unicode="N" horiz-adv-x="1540" d="M119 35v8l241 1366q3 17 17 29t31 12h90q24 0 39 -27l632 -1114h17q16 149 37 260l153 840q3 17 16.5 29t30.5 12h95q15 0 24.5 -10t9.5 -25v-8l-241 -1364q-3 -19 -16.5 -31t-30.5 -12h-95q-22 0 -41 23q0 1 -121 212.5t-279 490.5t-232 417h-15q-2 -11 -14.5 -105.5 t-22.5 -158.5l-149 -836q-3 -19 -16.5 -31t-30.5 -12h-94q-15 0 -25 10t-10 25z" />
<glyph unicode="O" horiz-adv-x="1644" d="M154 586q0 174 66.5 337t179.5 284.5t272.5 194.5t335.5 73q185 0 326 -83t214.5 -222.5t73.5 -311.5q0 -72 -12 -145q-38 -209 -159.5 -378t-301.5 -264.5t-383 -95.5q-179 0 -319.5 79.5t-216.5 218.5t-76 313zM336 600q0 -207 119.5 -333t318.5 -126q124 0 244 53.5 t213.5 145.5t151 225.5t57.5 282.5q0 210 -119.5 335.5t-319.5 125.5q-98 0 -195.5 -33.5t-181.5 -97t-149 -148.5t-102 -197t-37 -233z" />
<glyph unicode="P" horiz-adv-x="1351" d="M119 35v8l241 1366q3 17 17 29t31 12h503q216 0 347 -106.5t131 -280.5q0 -161 -81 -283.5t-220.5 -187t-315.5 -64.5h-391l-86 -485q-3 -19 -16.5 -31t-30.5 -12h-94q-15 0 -25 10t-10 25zM410 692h391q109 0 200.5 43.5t147 124.5t55.5 184q0 114 -73 179t-205 65h-412 z" />
<glyph unicode="Q" horiz-adv-x="1644" d="M154 586q0 174 66.5 337t179.5 284.5t272.5 194.5t335.5 73q185 0 326 -83t214.5 -222.5t73.5 -311.5q0 -72 -12 -145q-46 -253 -221 -443l145 -217q6 -9 6 -20q0 -13 -11 -23t-26 -10h-100q-35 0 -60 39l-79 119q-235 -183 -498 -183q-179 0 -319.5 79.5t-216.5 218.5 t-76 313zM336 600q0 -207 119.5 -333t318.5 -126q101 0 205 39t188 107l-209 313q-6 9 -6 18q0 14 11 25.5t28 11.5h101q33 0 57 -39l133 -208q162 193 162 436q0 211 -122 338t-321 127q-98 0 -195.5 -33.5t-181.5 -97t-149 -148.5t-102 -197t-37 -233z" />
<glyph unicode="R" horiz-adv-x="1423" d="M119 35v8l241 1366q3 17 17 29t31 12h503q216 0 347 -106.5t131 -280.5q0 -187 -121 -320t-320 -186l324 -502q8 -16 8 -22q0 -14 -11 -23.5t-28 -9.5h-117q-36 0 -61 39l-313 489h-369l-86 -485q-3 -19 -16.5 -31t-30.5 -12h-94q-15 0 -25 10t-10 25zM410 692h391 q166 0 284.5 99t118.5 253q0 112 -74 178t-204 66h-412z" />
<glyph unicode="S" horiz-adv-x="1273" d="M74 184q0 19 12 31l55 59q12 15 35 15q15 0 23 -8q79 -72 170 -106t211 -34q180 0 302 84t122 217q0 91 -88 142.5t-293 89.5q-185 34 -283 123.5t-98 220.5q0 101 47 187.5t126 145t182 91.5t214 33q144 0 269.5 -45.5t207.5 -135.5q10 -10 10 -24q0 -21 -18 -39 l-51 -51q-12 -15 -33 -15q-16 0 -29 13q-69 68 -156.5 99.5t-207.5 31.5q-159 0 -268 -75.5t-109 -193.5q0 -151 295 -204q230 -42 349.5 -134t119.5 -233q0 -147 -84 -260.5t-225.5 -173.5t-313.5 -60q-314 0 -483 185q-10 8 -10 24z" />
<glyph unicode="T" horiz-adv-x="1234" d="M190 1321v8l15 80q3 17 16.5 29t28.5 12h1118q15 0 25 -10t10 -25v-8l-14 -78q-3 -17 -18 -29t-32 -12h-467l-219 -1245q-3 -19 -16.5 -31t-30.5 -12h-96q-15 0 -25 10t-10 25v8l219 1245h-473q-13 0 -22 9.5t-9 23.5z" />
<glyph unicode="U" horiz-adv-x="1572" d="M197 485q0 69 12 142l139 782q3 17 16.5 29t30.5 12h94q15 0 25 -10t10 -25v-8l-135 -760q-10 -54 -10 -121q0 -179 90.5 -282t267.5 -103q211 0 360.5 140.5t188.5 365.5l135 762q3 18 17 29.5t32 11.5h95q13 0 22.5 -9.5t9.5 -23.5v-8l-139 -782q-53 -294 -252 -473 t-477 -179q-244 0 -388 138t-144 372z" />
<glyph unicode="V" horiz-adv-x="1406" d="M195 1411q0 15 12 27t29 12h96q35 0 43 -35l235 -911q28 -111 56 -281h8q60 131 153 281l555 911q20 35 56 35h116q13 0 22 -8t9 -19q0 -6 -8 -22l-836 -1364q-23 -37 -57 -37h-86q-35 0 -45 37l-356 1364q-2 2 -2 10z" />
<glyph unicode="W" horiz-adv-x="1835" d="M252 41l16 1366q0 19 10.5 31t30.5 12h90q41 0 41 -39l-8 -833q-4 -145 -10 -297h14l535 911q21 37 59 37h74q36 0 45 -37l217 -911h12q89 289 92 297l287 833q12 39 53 39h99q15 0 24 -8.5t9 -20.5q0 -8 -3 -14l-469 -1366q-15 -41 -53 -41h-100q-35 0 -45 37l-238 960 l-575 -960q-23 -37 -56 -37h-110q-18 0 -29.5 10.5t-11.5 30.5z" />
<glyph unicode="X" horiz-adv-x="1394" d="M-47 27q0 11 12 26l690 686l-430 660q-4 6 -4 16q0 14 12 24.5t29 10.5h103q42 0 63 -35l348 -543l539 543q35 35 76 35h129q12 0 21 -7.5t9 -17.5q0 -14 -12 -26l-664 -660l449 -686q6 -9 6 -18q0 -15 -12 -25t-29 -10h-100q-43 0 -68 39l-366 565l-566 -565 q-39 -39 -77 -39h-125q-15 0 -24 7.5t-9 19.5z" />
<glyph unicode="Y" horiz-adv-x="1327" d="M197 1409q0 16 11 28.5t28 12.5h94q40 0 57 -35l336 -655l567 655q30 35 68 35h119q13 0 20.5 -8.5t7.5 -20.5q0 -13 -10 -26l-702 -807l-97 -545q-3 -19 -16.5 -31t-30.5 -12h-94q-15 0 -25 10t-10 25v8l96 545l-415 807q-4 8 -4 14z" />
<glyph unicode="Z" horiz-adv-x="1335" d="M35 35v8l12 68q6 28 23 45l1065 1132h-822q-15 0 -23.5 9.5t-8.5 23.5v8l14 80q3 17 16.5 29t30.5 12h1034q15 0 26 -10.5t11 -24.5v-8l-14 -76q-5 -19 -23 -37l-1071 -1132h864q15 0 26 -10.5t11 -22.5v-8l-14 -78q-3 -18 -17 -30.5t-32 -12.5h-1073q-15 0 -25 10 t-10 25z" />
<glyph unicode="[" horiz-adv-x="667" d="M25 -367l325 1846q3 16 17.5 28.5t31.5 12.5h359q17 0 27 -10.5t10 -24.5v-8l-13 -62q-3 -19 -16.5 -31t-32.5 -12h-231l-289 -1634h231q17 0 26 -9.5t9 -25.5v-8l-10 -64q-3 -17 -17.5 -29t-33.5 -12h-359q-15 0 -24.5 10t-9.5 25v8z" />
<glyph unicode="\" horiz-adv-x="698" d="M197 1466v9q0 18 14.5 31.5t30.5 13.5h65q43 0 49 -41l265 -1594v-8q0 -15 -16.5 -29t-31.5 -14h-67q-18 0 -31 10.5t-14 28.5z" />
<glyph unicode="]" horiz-adv-x="667" d="M-57 -369l10 64q3 19 17.5 31t33.5 12h232l288 1634h-231q-17 0 -27 10t-10 25v8l12 64q3 16 17 28.5t32 12.5h359q15 0 26 -10.5t11 -24.5v-8l-326 -1846q-3 -17 -18 -29t-33 -12h-359q-16 0 -25 9.5t-9 23.5v8z" />
<glyph unicode="^" horiz-adv-x="1230" d="M172 715q0 13 8 24l537 705q32 41 67 41h70q39 0 55 -41l289 -705q0 -2 1 -6t1 -6q0 -15 -12 -25t-29 -10h-84q-37 0 -53 39l-225 565l-426 -565q-30 -42 -66 -39h-104q-29 0 -29 23z" />
<glyph unicode="_" horiz-adv-x="1112" d="M-176 -360l16 86h1213l-17 -86h-1212z" />
<glyph unicode="`" horiz-adv-x="937" d="M446 1532q0 15 11 26t26 11h111q17 0 29.5 -11t17.5 -28l61 -230q3 -6 3 -10q0 -14 -11 -24.5t-26 -10.5h-41q-39 0 -54 31l-122 230q-5 7 -5 16z" />
<glyph unicode="a" horiz-adv-x="1107" d="M66 252q0 73 21.5 131.5t57 98.5t90 69t110 46t128 26.5t133.5 12.5t137 3h93l10 61q6 35 6 62q0 89 -51.5 135.5t-165.5 46.5q-123 0 -287 -57q-12 -6 -22 -6q-17 0 -27 26l-14 49q-4 8 -4 17q0 23 16 31q61 35 167.5 60.5t205.5 25.5q69 0 130 -18.5t111.5 -55 t80.5 -100t30 -146.5q0 -49 -8 -96l-113 -631q-3 -19 -16.5 -31t-32.5 -12h-80q-17 0 -27 10t-10 25v8l21 109h-15q-60 -76 -161.5 -126.5t-204.5 -50.5q-130 0 -219.5 79.5t-89.5 197.5zM240 268q0 -72 47 -110.5t141 -38.5q49 0 108 21t113 56.5t95 89.5t51 113l20 123 h-80q-109 0 -192.5 -11.5t-155 -38.5t-109.5 -78.5t-38 -125.5z" />
<glyph unicode="b" horiz-adv-x="1224" d="M96 35v8l254 1434q3 18 16.5 30.5t30.5 12.5h92q13 0 22 -9.5t9 -23.5v-8l-80 -449q-5 -28 -12 -64.5t-11 -59.5t-5 -29h16q71 95 168.5 154t216.5 59q160 0 267.5 -113.5t107.5 -306.5q0 -128 -34.5 -240.5t-93 -194.5t-135.5 -141.5t-164 -89t-175 -29.5 q-107 0 -185.5 32.5t-146.5 90.5l-10 -57q-3 -17 -17.5 -29t-31.5 -12h-64q-15 0 -25 10t-10 25zM301 233q40 -33 69.5 -51.5t86 -35.5t125.5 -17q81 0 157.5 36t137 101t97 165.5t36.5 219.5q0 135 -60.5 209t-179.5 74q-60 0 -126 -29.5t-126 -82t-106.5 -135.5 t-63.5 -181z" />
<glyph unicode="c" horiz-adv-x="1028" d="M98 403q0 163 49 295t133.5 216.5t194.5 130t236 45.5q212 0 370 -148q6 -12 6 -24q0 -23 -14 -37l-47 -50q-16 -16 -35 -16q-14 0 -24 10q-69 52 -130 80.5t-130 28.5q-83 0 -160 -34.5t-138.5 -97.5t-98 -161t-36.5 -215q0 -143 69.5 -219t199.5 -76q134 0 305 123 q10 10 29 10q20 0 28 -14l45 -66q6 -9 6 -20q0 -22 -20 -39q-208 -150 -399 -150q-200 0 -319.5 114.5t-119.5 313.5z" />
<glyph unicode="d" horiz-adv-x="1222" d="M94 389q0 45 15 141q31 171 121.5 300t213 194.5t256.5 65.5q106 0 175 -24.5t137 -72.5l86 486q3 18 17 29.5t32 11.5h88q15 0 25 -10t10 -25v-8l-254 -1434q-3 -19 -16.5 -31t-30.5 -12h-84q-15 0 -25 10t-10 25v8l27 145h-17q-160 -213 -391 -213q-161 0 -268 110 t-107 304zM274 418q0 -137 60 -212t180 -75q62 0 128 29t125 82t104 135.5t63 179.5l49 270q-34 29 -52 42t-53.5 32t-77 27t-95.5 8q-81 0 -158 -36t-138 -100.5t-98 -164t-37 -217.5z" />
<glyph unicode="e" horiz-adv-x="1157" d="M98 412q0 153 50.5 282t135.5 214.5t197 133.5t236 48q184 0 290.5 -101t106.5 -293q0 -107 -16 -161q-12 -39 -45 -39h-777q-6 -37 -6 -68q0 -139 85.5 -223t222.5 -84q140 0 321 78q12 4 19 4q25 0 32 -23l17 -63q0 -2 1 -8t1 -7q0 -15 -17 -26q-66 -42 -178 -71.5 t-213 -29.5q-213 0 -338 119t-125 318zM307 616h635q6 37 6 70q0 121 -64 190.5t-175 69.5q-134 0 -247 -89.5t-155 -240.5z" />
<glyph unicode="f" horiz-adv-x="729" d="M135 956v9l12 59q3 17 17.5 29t30.5 12h135l18 106q30 173 140.5 271t291.5 98q140 0 228 -39q20 -10 20 -31q0 -12 -6 -24l-27 -51q-16 -29 -45 -29q-1 0 -65.5 10t-112.5 10q-210 0 -248 -200l-22 -121h305q13 0 24 -10.5t11 -24.5v-8l-13 -59q-3 -17 -17.5 -29 t-29.5 -12h-305l-155 -879q-3 -19 -17 -31t-31 -12h-86q-38 0 -38 35v8l155 879h-135q-14 0 -24.5 9.5t-10.5 24.5z" />
<glyph unicode="g" horiz-adv-x="1214" d="M66 -334q0 11 6 23l30 59q13 29 45 29q11 0 15 -2q135 -49 272 -49q85 0 168.5 34.5t147 102t77.5 151.5l15 86q3 21 15.5 79t16.5 69h-18q-67 -95 -163 -153t-216 -58q-163 0 -269 109t-106 294q0 139 48 261.5t126.5 207t181 133t210.5 48.5q197 0 348 -140l14 74 q3 18 17 29.5t32 11.5h64q13 0 24 -10.5t11 -24.5v-8l-174 -979q-38 -213 -205.5 -343t-401.5 -130q-89 0 -174 18.5t-141 49.5q-16 11 -16 28zM279 459q0 -128 60.5 -197t180.5 -69q63 0 128 28t122 79t100.5 130t59.5 172l37 209q-36 31 -56 45.5t-58.5 37t-82.5 32.5 t-96 10q-79 0 -150 -32.5t-126 -92t-87 -151t-32 -201.5z" />
<glyph unicode="h" horiz-adv-x="1175" d="M96 35v8l254 1436q3 16 16.5 28.5t30.5 12.5h90q14 0 23.5 -10.5t9.5 -24.5v-8l-78 -435q-2 -13 -8.5 -46t-11.5 -60t-6 -33h14q161 187 352 187q145 0 226.5 -80t81.5 -222q0 -60 -11 -116l-110 -631q-3 -17 -17.5 -29t-29.5 -12h-91q-15 0 -24.5 10t-9.5 25v8l106 600 q8 41 8 86q0 203 -182 203q-119 0 -228 -91t-128 -196l-107 -604q-3 -18 -15.5 -29.5t-29.5 -11.5h-90q-15 0 -25 10t-10 25z" />
<glyph unicode="i" horiz-adv-x="477" d="M96 37v8l174 979q3 17 17.5 29t31.5 12h89q13 0 23.5 -10.5t10.5 -24.5v-8l-174 -979q-3 -18 -17 -30.5t-30 -12.5h-88q-16 0 -26.5 10t-10.5 27zM317 1407q0 47 38.5 84t86.5 37q39 0 66 -25t27 -61q0 -3 -1.5 -8.5t-1.5 -8.5q-7 -42 -43 -71t-81 -29q-38 0 -64.5 23.5 t-26.5 58.5z" />
<glyph unicode="j" horiz-adv-x="477" d="M-426 -362q0 10 6 22l29 57q15 31 49 31q4 0 65.5 -11t108.5 -11q96 0 162 50.5t84 151.5l194 1096q3 17 16.5 29t28.5 12h91q15 0 24.5 -10t9.5 -25v-8l-192 -1081q-64 -371 -428 -371q-134 0 -225 35q-23 10 -23 33zM317 1407q0 47 38.5 84t88.5 37q40 0 65.5 -24.5 t25.5 -61.5q0 -2 -1.5 -8t-1.5 -9q-7 -43 -42.5 -71.5t-79.5 -28.5q-40 0 -66.5 23.5t-26.5 58.5z" />
<glyph unicode="k" horiz-adv-x="1038" d="M96 35v8l254 1436q3 18 17 29.5t32 11.5h88q15 0 25 -10t10 -25v-8l-131 -750q-11 -72 -31 -131h15q34 34 86 78l420 354q43 37 71 37h127q11 0 18 -8t7 -19q0 -14 -10 -24l-471 -393l331 -570q4 -8 4 -16q0 -13 -10 -24t-26 -11h-103q-38 0 -57 39l-262 504l-170 -154 l-62 -346q-3 -19 -16.5 -31t-30.5 -12h-88q-17 0 -27 10t-10 25z" />
<glyph unicode="l" horiz-adv-x="477" d="M96 37v8l254 1434q3 17 17.5 29t31.5 12h88q15 0 25 -10t10 -25v-8l-254 -1434q-3 -19 -16.5 -31t-30.5 -12h-88q-16 0 -26.5 10t-10.5 27z" />
<glyph unicode="m" horiz-adv-x="1814" d="M96 35v8l174 981q3 18 17 29.5t32 11.5h87q14 0 23 -10t9 -25v-8l-22 -119h14q74 89 155.5 138t194.5 49q103 0 169.5 -55t88.5 -156q165 211 379 211q148 0 230 -78t82 -217q0 -39 -11 -111l-112 -643q-3 -17 -16.5 -29t-30.5 -12h-86q-17 0 -27 10t-10 25v8l106 604 q10 62 10 103q0 92 -38.5 138t-127.5 46q-115 0 -220.5 -93.5t-123.5 -195.5l-106 -602q-3 -18 -15.5 -30.5t-29.5 -12.5h-88q-15 0 -26 10t-11 25v8l106 604q11 71 11 105q0 92 -38 137t-128 45q-117 0 -221.5 -94.5t-124.5 -202.5l-105 -594q-3 -18 -15.5 -30.5 t-29.5 -12.5h-88q-17 0 -27 10t-10 25z" />
<glyph unicode="n" horiz-adv-x="1175" d="M96 35v8l174 981q3 17 16.5 29t30.5 12h89q14 0 23 -10t9 -25v-8l-22 -119h14q158 187 352 187q148 0 229 -78.5t81 -223.5q0 -39 -11 -114l-112 -633q-3 -17 -17.5 -29t-29.5 -12h-91q-15 0 -24.5 10t-9.5 25v8l106 602q8 47 8 98q0 97 -42 144t-140 47q-119 0 -228 -92 t-128 -197l-107 -602q-3 -18 -15.5 -30.5t-29.5 -12.5h-90q-15 0 -25 10t-10 25z" />
<glyph unicode="o" d="M102 422q0 142 51 267t136 212.5t199 138t237 50.5q198 0 325.5 -126.5t127.5 -324.5q0 -143 -52 -268t-138.5 -211t-200.5 -135.5t-236 -49.5q-198 0 -323.5 124.5t-125.5 322.5zM279 436q0 -143 73.5 -225t204.5 -82q84 0 163.5 36.5t142 100t100.5 158t38 203.5 q0 145 -75 228t-205 83q-82 0 -161.5 -37t-141.5 -101.5t-100.5 -159.5t-38.5 -204z" />
<glyph unicode="p" horiz-adv-x="1224" d="M25 -369l243 1391q5 19 18.5 31t30.5 12h89q15 0 23.5 -9.5t8.5 -23.5v-8l-26 -150h16q66 96 165 156t220 60q161 0 268 -110t107 -302q0 -159 -53 -294.5t-139.5 -223t-193.5 -136.5t-218 -49q-104 0 -171.5 24t-140.5 73l-77 -441q-3 -17 -18 -29t-32 -12h-88 q-15 0 -23.5 9.5t-8.5 23.5v8zM301 236q42 -34 70 -52.5t85.5 -36.5t125.5 -18q81 0 157.5 36t137 101t97 165.5t36.5 219.5q0 135 -60.5 209t-179.5 74q-60 0 -126 -29t-126 -81.5t-106.5 -135t-63.5 -180.5z" />
<glyph unicode="q" horiz-adv-x="1222" d="M94 387q0 127 34.5 240t94 196.5t136.5 144.5t164 91.5t175 30.5q107 0 185.5 -32.5t148.5 -90.5l10 57q3 17 17 29t31 12h63q15 0 25 -10t10 -25v-8l-246 -1389q-3 -18 -17 -30.5t-32 -12.5h-90q-15 0 -24 9t-9 22q0 2 1 5t1 5l70 402q21 121 32 153h-16 q-69 -94 -169.5 -152.5t-219.5 -58.5q-161 0 -268 109t-107 303zM274 418q0 -137 59.5 -212t178.5 -75q133 0 260 117.5t162 308.5l49 270q-32 27 -52.5 41t-54.5 32t-76 26t-95 8q-82 0 -159 -35.5t-138 -99.5t-97.5 -163.5t-36.5 -217.5z" />
<glyph unicode="r" horiz-adv-x="815" d="M96 35v8l174 981q3 17 16.5 29t30.5 12h89q14 0 23 -10t9 -25v-8l-14 -70l-14 -80h14q68 102 160 160t198 58q77 0 142 -37q14 -11 14 -25q0 -4 -4 -16l-33 -84q-5 -12 -18 -22.5t-25 -10.5q-10 0 -51 17.5t-80 17.5q-128 0 -239 -127t-144 -320l-78 -440 q-3 -18 -16.5 -30.5t-28.5 -12.5h-90q-15 0 -25 10t-10 25z" />
<glyph unicode="s" horiz-adv-x="944" d="M33 84q0 8 6 20l33 54q13 22 43 22q10 0 14 -2q112 -53 262 -53q119 0 206 55.5t87 136.5q0 38 -28.5 66t-74 46.5t-100.5 35.5t-110 38.5t-100.5 49.5t-74 74.5t-28.5 107.5q0 151 119.5 253t304.5 102q95 0 192.5 -22.5t151.5 -59.5q10 -8 10 -25q0 -4 -4 -16l-35 -56 q-17 -24 -43 -24q-4 0 -16 4q-112 51 -246 51q-108 0 -183 -52t-75 -128q0 -38 28.5 -67t74 -47.5t100.5 -36t110 -39t100.5 -49.5t74 -74t28.5 -107q0 -158 -133.5 -262.5t-333.5 -104.5q-95 0 -190.5 21.5t-151.5 56.5q-18 12 -18 31z" />
<glyph unicode="t" horiz-adv-x="790" d="M135 956v9l12 59q3 17 17.5 29t30.5 12h135l45 252q3 16 16.5 27.5t30.5 11.5h90q13 0 24 -10.5t11 -22.5v-8l-45 -250h307q15 0 26 -10.5t11 -24.5v-8l-12 -59q-3 -17 -18 -29t-32 -12h-307l-106 -598q-6 -30 -6 -58q0 -135 141 -135q43 0 97 16.5t63 16.5q13 0 23 -8.5 t13 -20.5l15 -61q0 -2 1 -8t1 -7q0 -17 -19 -30q-92 -54 -223 -54q-142 0 -214.5 65.5t-72.5 186.5q0 41 9 90l106 605h-135q-14 0 -24.5 9.5t-10.5 24.5z" />
<glyph unicode="u" horiz-adv-x="1175" d="M145 266q0 50 13 123l110 633q5 19 18.5 31t30.5 12h89q14 0 24 -10t10 -23q0 -2 -1 -5t-1 -5l-104 -602q-10 -62 -10 -98q0 -97 42.5 -144t139.5 -47q119 0 229 92t129 197l105 602q5 19 18.5 31t30.5 12h88q14 0 24.5 -10t10.5 -25v-8l-172 -981q-3 -17 -17.5 -29 t-31.5 -12h-86q-15 0 -25 10t-10 25v8l6 35q1 5 5.5 26t8.5 39t4 19h-18q-66 -83 -158.5 -135t-195.5 -52q-149 0 -227.5 75t-78.5 216z" />
<glyph unicode="v" horiz-adv-x="1024" d="M162 1018v8q0 16 10.5 27.5t28.5 11.5h84q35 0 41 -35l118 -569q13 -60 21 -114.5t10 -78.5l2 -24h15q1 -1 11 23t37 79.5t60 114.5l322 569q15 35 51 35h102q12 0 19.5 -7t7.5 -18t-6 -20l-549 -985q-15 -35 -51 -35h-90q-32 0 -41 35z" />
<glyph unicode="w" horiz-adv-x="1566" d="M182 1024q0 19 11.5 30t31.5 11h86q18 0 29.5 -10.5t11.5 -28.5l35 -520q2 -37 2 -129l-2 -174h14l392 778q18 37 55 37h98q39 0 45 -37l117 -778h14q58 190 105 303l219 520q16 39 55 39h88q35 0 35 -27q0 -10 -2 -14l-418 -983q-7 -19 -22.5 -30t-32.5 -11h-117 q-39 0 -45 39l-88 545q-7 45 -14 102t-10 91l-3 34h-12q-51 -125 -104 -227l-285 -545q-19 -39 -55 -39h-123q-17 0 -29.5 11t-13.5 30z" />
<glyph unicode="x" horiz-adv-x="1011" d="M-18 27q0 12 12 24l444 488l-264 475q-4 4 -4 16q0 14 11 24.5t24 10.5h98q32 0 53 -37l127 -233l64 -129h14q52 70 105 129l211 233q32 37 65 37h113q12 0 19 -8t7 -19t-10 -24l-432 -475l270 -486q4 -12 4 -16q0 -15 -11 -26t-23 -11h-97q-37 0 -57 39l-135 246 q-16 27 -30.5 59t-21.5 50l-6 18h-14q-49 -66 -104 -127l-224 -246q-36 -39 -67 -39h-113q-12 0 -20 7.5t-8 19.5z" />
<glyph unicode="y" horiz-adv-x="1034" d="M141 -383q0 11 6 23l218 380l-203 996v8q0 16 10.5 28.5t28.5 12.5h80q39 0 45 -37l118 -569q9 -45 17.5 -99.5t12.5 -85.5l5 -32h17q53 109 112 215l322 571q21 37 55 37h98q13 0 21 -7t8 -18q0 -6 -8 -22l-780 -1389q-25 -39 -60 -39h-94q-13 0 -21 8t-8 19z" />
<glyph unicode="z" horiz-adv-x="1007" d="M6 35v8l10 57q5 22 21 41l749 774h-567q-15 0 -24 11t-9 26v9l13 63q3 17 16.5 29t30.5 12h762q15 0 25.5 -10.5t10.5 -24.5v-8l-10 -57q-6 -27 -24 -45l-752 -773h608q19 0 28 -12t9 -29l-12 -63q-3 -19 -16.5 -31t-32.5 -12h-803q-14 0 -23.5 10t-9.5 25z" />
<glyph unicode="{" horiz-adv-x="811" d="M49 520l14 74q3 18 15.5 29.5t27.5 11.5q89 0 176 95t115 251l31 178q32 186 129 273.5t274 87.5h70q15 0 26 -11t11 -30l-10 -60q-3 -17 -18.5 -30t-32.5 -13h-41q-116 0 -167 -47t-73 -174l-31 -178q-25 -139 -105 -253.5t-186 -158.5l-2 -16q74 -35 114 -117t40 -190 q0 -47 -10 -109l-31 -176q-10 -58 -10 -92q0 -72 39.5 -101.5t132.5 -29.5h41q14 0 24.5 -10.5t10.5 -28.5l-11 -64q-3 -17 -18 -29t-33 -12h-69q-148 0 -217.5 60.5t-69.5 187.5q0 62 10 113l33 178q8 44 8 90q0 117 -52 188.5t-122 73.5q-14 0 -23.5 11.5t-9.5 27.5z" />
<glyph unicode="|" horiz-adv-x="536" d="M248 -367v1844q0 17 12 30t29 13h82q17 0 29 -13t12 -30v-1844q0 -19 -12 -31t-29 -12h-82q-17 0 -29 12t-12 31z" />
<glyph unicode="}" horiz-adv-x="811" d="M-57 -375q0 4 10 70q3 15 18.5 27t32.5 12h41q115 0 166.5 48.5t73.5 174.5l30 176q25 143 104.5 258.5t186.5 157.5l2 16q-73 35 -113 116.5t-40 188.5q0 45 10 107l31 178q8 47 8 90q0 73 -38.5 102t-131.5 29h-41q-15 0 -25 10.5t-10 24.5v8l10 60q3 17 17.5 29 t31.5 12h70q147 0 217 -61t70 -187q0 -45 -10 -113l-31 -178q-8 -47 -8 -94q0 -116 51.5 -184t124.5 -68q14 0 22 -9t8 -24v-8l-14 -74q-1 -15 -16 -27t-29 -12q-86 -2 -173.5 -99.5t-115.5 -252.5l-32 -178q-34 -187 -130 -274t-274 -87h-70q-15 0 -24.5 10t-9.5 25z" />
<glyph unicode="~" horiz-adv-x="1382" d="M115 506q0 1 1 3.5t1 4.5q39 164 154 268.5t245 104.5q58 0 117.5 -25.5t107.5 -61.5t92.5 -72t89.5 -61.5t83 -25.5q69 0 133 60.5t92 152.5q3 19 17.5 31t33.5 12h82q15 0 24 -9.5t9 -23.5v-8q-40 -165 -156.5 -269t-245.5 -104q-55 0 -113 25.5t-106.5 61.5t-94.5 72 t-92 61.5t-83 25.5q-69 0 -132 -60.5t-91 -152.5q-4 -18 -20 -30.5t-34 -12.5h-82q-15 0 -23.5 9.5t-8.5 23.5z" />
<glyph unicode="&#xa1;" horiz-adv-x="591" d="M57 -369l66 375q90 418 127 596q3 18 18.5 29.5t34.5 11.5h45q15 0 25 -10t10 -25v-6l-80 -594l-65 -377q-3 -17 -18 -29t-34 -12h-96q-15 0 -24 9.5t-9 23.5v8zM258 944q0 58 44.5 102t100.5 44q44 0 74.5 -30t30.5 -73q0 -14 -2 -20q-9 -51 -52 -87t-94 -36 q-44 0 -73 28.5t-29 71.5z" />
<glyph unicode="&#xa2;" horiz-adv-x="1019" d="M127 604q0 147 42.5 269t117 204t170.5 132.5t207 64.5l24 135q3 17 17.5 29t31.5 12h80q15 0 25 -10t10 -25v-8l-25 -133q155 -22 281 -139q8 -8 8 -25q0 -21 -14 -35l-47 -45q-14 -14 -39 -14q-17 0 -25 8q-104 104 -266 104q-84 0 -159.5 -34.5t-134.5 -98t-93.5 -162 t-34.5 -217.5q0 -141 74 -216.5t205 -75.5q136 0 297 118q18 11 28 11q18 0 33 -15l39 -63q4 -12 4 -19q0 -25 -14 -37q-66 -50 -163.5 -93.5t-170.5 -49.5l-25 -133q-3 -19 -16.5 -31t-30.5 -12h-80q-16 0 -26.5 10t-10.5 27v8l25 131q-161 22 -252.5 135.5t-91.5 292.5z " />
<glyph unicode="&#xa3;" horiz-adv-x="1159" d="M33 129q0 20 12 34t31 19q66 16 121.5 84t89.5 164.5t41 202.5h-146q-15 0 -23.5 9.5t-8.5 23.5v8l12 69q1 17 15.5 29t31.5 12h129q2 173 16 258q33 186 176.5 309.5t335.5 123.5q219 0 336 -107q10 -8 10 -27q0 -21 -14 -32l-43 -43q-19 -19 -39 -19q-14 0 -24 10 q-72 60 -226 60q-79 0 -139 -25.5t-99 -70.5t-63.5 -113t-34.5 -146.5t-10 -177.5h330q17 0 26 -11.5t9 -29.5l-13 -69q-3 -17 -17.5 -29t-31.5 -12h-311q-23 -137 -50 -208q-64 -172 -196 -253l2 -10q68 12 140 12q71 0 206.5 -17.5t204.5 -17.5q108 0 189 17q2 0 5 1t5 1 q14 0 23.5 -9t9.5 -22l4 -78q0 -16 -12.5 -30t-28.5 -19q-26 -6 -107 -13t-135 -7q-56 0 -189 22.5t-208 22.5q-124 0 -285 -33q-4 -2 -12 -2q-14 0 -24 10t-11 25z" />
<glyph unicode="&#xa4;" d="M205 310q0 18 12 28l84 82q-86 120 -86 258q0 141 86 258l-82 84q-13 10 -13.5 28.5t11.5 28.5l51 51q12 12 30 12t30 -12l82 -81q113 83 258 83q148 0 258 -83l84 83q12 12 29.5 12t27.5 -12l53 -51q10 -12 10 -29.5t-10 -29.5l-84 -84q86 -117 86 -258t-86 -258l84 -82 q10 -12 10 -29.5t-10 -29.5l-51 -50q-12 -12 -29.5 -12t-29.5 12l-84 80q-119 -84 -258 -84q-136 0 -258 84l-82 -80q-14 -12 -31 -12t-31 12l-49 52q-12 11 -12 29zM371 678q0 -123 87 -210t210 -87t211 87t88 210q0 124 -88 211.5t-211 87.5t-210 -87.5t-87 -211.5z" />
<glyph unicode="&#xa5;" horiz-adv-x="1247" d="M104 461v8l9 51q3 17 17.5 29t31.5 12h409l4 29l-98 184h-278q-15 0 -24 10t-9 25v8l8 49q3 17 17.5 29t31.5 12h187l-248 488q-4 6 -4 20q3 14 13.5 24.5t23.5 10.5h94q33 0 47 -20l346 -672l586 672q23 20 49 20h121q24 0 24 -27q0 -15 -8 -28l-424 -488h187 q16 0 25 -9.5t9 -23.5v-8l-8 -49q-3 -19 -17.5 -31t-33.5 -12h-279l-159 -184l-4 -29h405q17 0 26 -9.5t9 -23.5v-8l-8 -51q-3 -17 -18 -29t-34 -12h-405l-68 -387q-3 -18 -17 -29.5t-32 -11.5h-94q-15 0 -25 10t-10 25v8l68 385h-410q-15 0 -24 9.5t-9 23.5z" />
<glyph unicode="&#xa6;" horiz-adv-x="536" d="M248 -367v768q0 16 12 28.5t29 12.5h82q17 0 29 -12.5t12 -28.5v-768q0 -19 -12 -31t-29 -12h-82q-17 0 -29 12t-12 31zM248 715v762q0 17 12 30t29 13h82q17 0 29 -13t12 -30v-762q0 -17 -12 -29t-29 -12h-82q-17 0 -29 12t-12 29z" />
<glyph unicode="&#xa7;" horiz-adv-x="1095" d="M25 -264q0 21 18 39l51 57q7 10 29 10q23 0 35 -12q49 -43 122.5 -69.5t139.5 -26.5q122 0 211.5 52.5t89.5 139.5q0 66 -68.5 125t-218.5 137q-152 79 -225.5 159.5t-73.5 180.5q0 220 311 365q-96 65 -142 128.5t-46 139.5q0 164 133.5 271.5t351.5 107.5 q110 0 217.5 -39.5t169.5 -101.5q11 -11 11 -23q0 -24 -21 -41l-51 -53q-15 -12 -33 -12q-19 0 -28 12q-52 42 -124.5 69t-138.5 27q-126 0 -211 -51t-85 -141q0 -24 7 -44.5t28 -43.5t38 -38.5t59 -42.5t67 -42.5t85 -50.5q157 -92 228 -169t71 -173q0 -213 -303 -359 q92 -66 136 -127t44 -135q0 -168 -135.5 -279.5t-355.5 -111.5q-106 0 -206 38.5t-175 104.5q-12 9 -12 23zM313 567q0 -99 143 -190q39 -25 136 -76q260 113 260 246q0 68 -61.5 121.5t-215.5 144.5q-262 -120 -262 -246z" />
<glyph unicode="&#xa8;" horiz-adv-x="970" d="M362 1395q0 9 3 18q7 45 43 76t81 31q39 0 66 -25t27 -63q0 -49 -40.5 -87t-88.5 -38q-39 0 -65 25.5t-26 62.5zM770 1395q0 12 2 18q7 45 44.5 76t80.5 31q40 0 66 -25t26 -63q0 -49 -39.5 -87t-89.5 -38q-38 0 -64 25.5t-26 62.5z" />
<glyph unicode="&#xa9;" horiz-adv-x="1722" d="M111 725q0 221 108.5 407.5t295 295t407.5 108.5t408 -108.5t296 -295t109 -407.5q0 -219 -109 -406t-296 -296t-408 -109q-165 0 -315.5 64.5t-259 173.5t-172.5 259t-64 314zM233 725q0 -186 92.5 -345t251.5 -252t345 -93q187 0 346 93t251.5 251.5t92.5 345.5 q0 186 -92.5 344.5t-251.5 251t-346 92.5q-186 0 -345 -92.5t-251.5 -251t-92.5 -344.5zM471 727q0 210 127.5 340.5t333.5 130.5q171 0 313 -119q14 -11 15 -31t-9 -30l-34 -37q-12 -11 -31 -11t-31 11q-90 84 -223 84q-135 0 -227.5 -94.5t-92.5 -243.5q0 -150 92.5 -244 t227.5 -94q58 0 120 22.5t105 59.5q12 12 32 11t32 -13l32 -35q21 -36 -8 -65q-62 -54 -144 -84.5t-169 -30.5q-207 0 -334 131t-127 342z" />
<glyph unicode="&#xaa;" horiz-adv-x="1093" d="M262 889q0 77 32 134.5t81 90t120.5 52.5t137 26t145.5 6h70l8 55q2 10 2 29q0 59 -40.5 97t-121.5 38q-134 0 -215 -45q-7 -4 -24 -4q-12 0 -21 6l-22 29q-4 12 -4 22q0 21 6 25q54 42 124 65t183 23q111 0 187.5 -61.5t76.5 -184.5q0 -36 -6 -80l-84 -471 q-3 -18 -17 -29.5t-32 -11.5h-49q-25 0 -25 23v8l14 76q-2 4 -6 8q-57 -67 -115 -100t-151 -33q-113 0 -183.5 58t-70.5 149zM397 905q0 -102 140 -102q78 0 171 62t107 147l12 78h-55q-85 0 -150 -9t-117.5 -29t-80 -57t-27.5 -90z" />
<glyph unicode="&#xab;" horiz-adv-x="1290" d="M197 584q0 22 22 41l506 428q12 12 31 12q16 0 28 -12l43 -54q7 -7 7 -18q0 -25 -17 -39l-428 -362l273 -332q24 -27 24 -45q0 -10 -12 -25l-64 -55q-16 -8 -22 -8q-20 0 -29 12l-352 428q-10 13 -10 29zM743 584q0 21 23 41l506 428q12 12 31 12q16 0 28 -12l43 -54 q6 -6 6 -18q0 -26 -16 -39l-428 -362l272 -332q2 -2 6.5 -7.5t6 -7t5 -6t4.5 -7.5t2 -7.5t1 -9.5q0 -10 -12 -25l-64 -55q-16 -8 -22 -8q-20 0 -29 12l-352 428q-11 15 -11 29z" />
<glyph unicode="&#xac;" d="M127 752v82q0 17 12 28.5t29 11.5h999q17 0 29 -11.5t12 -28.5v-566q0 -15 -13 -27t-28 -12h-84q-17 0 -29 12t-12 27v449h-874q-41 0 -41 35z" />
<glyph unicode="&#xad;" horiz-adv-x="710" d="M102 549v8l13 68q3 17 17.5 29t31.5 12h502q15 0 23.5 -9.5t8.5 -23.5v-8l-12 -68q-3 -19 -16.5 -31t-30.5 -12h-502q-15 0 -25 10t-10 25z" />
<glyph unicode="&#xae;" horiz-adv-x="1722" d="M111 725q0 221 108.5 407.5t295 295t407.5 108.5t408 -108.5t296 -295t109 -407.5q0 -219 -109 -406t-296 -296t-408 -109q-165 0 -315.5 64.5t-259 173.5t-172.5 259t-64 314zM233 725q0 -186 92.5 -345t251.5 -252t345 -93q187 0 346 93t251.5 251.5t92.5 345.5 q0 186 -92.5 344.5t-251.5 251t-346 92.5q-186 0 -345 -92.5t-251.5 -251t-92.5 -344.5zM582 311v834q0 15 13 28t32 13h313q154 0 249 -82t95 -217q0 -89 -53.5 -162.5t-147.5 -116.5l213 -258q17 -20 4.5 -51t-43.5 -31h-51q-30 0 -59 29q-23 27 -110 144t-117 151h-199 v-281q0 -16 -12.5 -29.5t-32.5 -13.5h-49q-19 0 -32 13.5t-13 29.5zM721 725h240q83 0 131.5 43.5t48.5 118.5q0 76 -48.5 120t-131.5 44h-240v-326z" />
<glyph unicode="&#xaf;" horiz-adv-x="942" d="M313 1405v8l11 53q3 17 17.5 29t33.5 12h608q15 0 26 -10t11 -24v-9l-10 -53q-3 -17 -19 -30t-33 -13h-608q-17 0 -27 10.5t-10 26.5z" />
<glyph unicode="&#xb0;" horiz-adv-x="882" d="M172 1163q0 133 96.5 227.5t227.5 94.5q134 0 229.5 -94.5t95.5 -227.5t-95 -227t-230 -94q-133 0 -228.5 93.5t-95.5 227.5zM303 1163q0 -81 57 -136.5t136 -55.5q83 0 139.5 55t56.5 137q0 83 -56 138t-140 55q-80 0 -136.5 -55.5t-56.5 -137.5z" />
<glyph unicode="&#xb1;" d="M129 43v72q0 17 13 29t30 12h993q19 0 31 -12t12 -29v-72q0 -19 -12 -31t-31 -12h-993q-18 0 -30.5 12.5t-12.5 30.5zM131 793v75q0 17 12 29t29 12h420v418q0 17 12 29t31 12h72q17 0 29 -12t12 -29v-418h417q19 0 31 -12t12 -29v-75q0 -16 -12.5 -28.5t-30.5 -12.5 h-417v-418q0 -17 -12 -29t-29 -12h-72q-19 0 -31 12t-12 29v418h-420q-17 0 -29 12.5t-12 28.5z" />
<glyph unicode="&#xb2;" horiz-adv-x="636" d="M131 729v10l6 33q5 26 41 57l371 314q55 47 55 117q0 44 -26.5 71t-75.5 27q-47 0 -92.5 -29.5t-75.5 -77.5q-14 -18 -37 -18q-12 0 -18 4l-33 20q-17 10 -17 25t13 31q39 68 106 115t156 47q95 0 160 -59t65 -144q0 -135 -100 -217l-285 -242h270q12 0 20.5 -9.5 t8.5 -23.5v-8l-6 -35q-3 -18 -17 -29.5t-28 -11.5h-428q-14 0 -23.5 9t-9.5 24z" />
<glyph unicode="&#xb3;" horiz-adv-x="610" d="M139 831q0 29 19 37l45 21q12 4 20 4q4 0 6.5 -1.5t4.5 -3.5t5 -5.5t5 -5.5q1 -1 10 -14t13 -17.5t14.5 -15t19.5 -15t23 -8.5t30 -4q62 0 116 44t54 107q0 47 -32 75t-84 28h-37q-15 0 -24 8t-9 22q0 1 1 5t1 6l6 37q3 15 14.5 24.5t26.5 9.5h33q54 0 93.5 34.5 t39.5 84.5q0 35 -22 55.5t-62 20.5q-38 0 -65 -14t-38.5 -30t-25 -30t-27.5 -14q-4 0 -16 4l-29 23q-16 10 -16 28t10 33q84 111 211 111q84 0 141.5 -50.5t57.5 -124.5q0 -48 -27 -95.5t-76 -80.5q76 -58 76 -157q0 -118 -88.5 -200.5t-206.5 -82.5q-121 0 -192 107 q-19 30 -19 40z" />
<glyph unicode="&#xb4;" horiz-adv-x="937" d="M571 1282q0 8 7 18l143 230q24 39 63 39h109q12 0 19.5 -7t7.5 -18q0 -12 -13 -28l-207 -230q-28 -31 -61 -31h-39q-29 0 -29 27z" />
<glyph unicode="&#xb5;" horiz-adv-x="1157" d="M16 -367l244 1389q5 19 18.5 31t30.5 12h88q15 0 26 -10t11 -25v-8l-108 -619q-7 -44 -7 -71q0 -95 44.5 -148t136.5 -53q68 0 131.5 29t110 76t78.5 103t42 112l101 571q4 18 18 30.5t29 12.5h90q14 0 24.5 -10t10.5 -25v-8l-172 -981q-3 -17 -18 -29t-32 -12h-88 q-14 0 -23 10t-9 25v8l6 35q1 5 5 25.5t7.5 38t3.5 18.5h-16q-70 -83 -161.5 -134t-195.5 -51q-121 0 -178 82l-74 -424q-3 -18 -18 -30.5t-31 -12.5h-90q-15 0 -25 10t-10 25v8z" />
<glyph unicode="&#xb6;" horiz-adv-x="1155" d="M160 948q0 228 156 365t403 137h530q17 0 27 -10t10 -25v-8l-8 -37q-2 -14 -18 -28.5t-29 -14.5h-57l-300 -1694q-3 -18 -17 -30.5t-32 -12.5h-43q-15 0 -24.5 10t-9.5 25v8l299 1694h-252l-299 -1694q-3 -18 -18.5 -30.5t-31.5 -12.5h-43q-17 0 -26.5 9.5t-9.5 23.5 q0 2 1 5t1 5l170 967q-176 4 -277.5 101.5t-101.5 246.5z" />
<glyph unicode="&#xb7;" horiz-adv-x="587" d="M266 666q0 14 2 22q9 52 50 87.5t92 35.5q45 0 75.5 -29t30.5 -73q0 -55 -46.5 -99.5t-102.5 -44.5q-44 0 -72.5 29.5t-28.5 71.5z" />
<glyph unicode="&#xb8;" horiz-adv-x="921" d="M113 -387q0 2 1 5t1 5l6 31q2 12 13 24t26 15q18 0 49 -3t49 -3q83 0 137 30t54 74q0 25 -23 45t-23 39q0 6 3 12l32 107l11 10q15 23 36 23h39q13 0 24 -10t11 -21l-22 -94q49 -40 49 -99q0 -96 -97 -164.5t-229 -68.5q-103 0 -130 16q-16 11 -17 27z" />
<glyph unicode="&#xb9;" horiz-adv-x="550" d="M199 1208q0 18 18 33l256 195q23 14 37 14h43q31 0 31 -29v-10l-121 -686q-3 -16 -16 -28.5t-31 -12.5h-45q-31 0 -31 29q0 2 1 6t1 6l94 547l-153 -115q-11 -14 -31 -14q-10 0 -19 6l-28 39q-6 12 -6 20z" />
<glyph unicode="&#xba;" horiz-adv-x="1210" d="M322 1001q0 143 65 262.5t174.5 187t237.5 67.5q152 0 251 -98t99 -249q0 -108 -40 -204t-106.5 -162t-154.5 -104.5t-182 -38.5q-153 0 -248.5 93.5t-95.5 245.5zM461 1018q0 -106 56.5 -166.5t154.5 -60.5q63 0 123.5 26.5t108.5 73.5t77 117t29 151q0 108 -57 170 t-158 62q-62 0 -121.5 -27t-107 -74.5t-76.5 -118.5t-29 -153z" />
<glyph unicode="&#xbb;" horiz-adv-x="1292" d="M70 199q0 26 16 39l428 362l-272 332q-2 2 -6.5 7.5t-6 7t-5 6t-4.5 7.5t-2 7.5t-1 9.5q0 9 12 24l64 56q16 8 22 8q20 0 29 -12l352 -428q11 -15 11 -29q0 -21 -23 -41l-506 -428q-12 -12 -31 -12q-16 0 -28 12l-43 53q-6 6 -6 19zM616 199q0 25 17 39l428 362l-273 332 q-24 27 -24 45q0 9 12 24l64 56q16 8 22 8q20 0 29 -12l352 -428q10 -13 10 -29q0 -22 -22 -41l-506 -428q-12 -12 -31 -12q-16 0 -28 12l-43 53q-7 7 -7 19z" />
<glyph unicode="&#xbc;" horiz-adv-x="1472" d="M162 1208q0 18 18 33l256 195q23 14 37 14h43q31 0 31 -29v-10l-121 -686q-3 -16 -16 -28.5t-31 -12.5h-45q-31 0 -31 29q0 2 1 6t1 6l94 547l-153 -115q-11 -14 -31 -14q-9 0 -18 6l-29 39q-6 12 -6 20zM176 27q0 13 8 24l1045 1364q25 35 65 35h54q11 0 18.5 -7.5 t7.5 -17.5q0 -11 -8 -22l-1042 -1366q-27 -37 -64 -37h-59q-10 0 -17.5 8t-7.5 19zM776 215q0 8 2 14l4 21q6 17 11 24q9 18 24 33l402 414l45 37q16 14 43 14h16q43 0 43 -35q0 -11 -4 -39l-72 -401h74q12 0 22.5 -10.5t10.5 -24.5v-8l-8 -35q-1 -7 -4 -12.5t-5.5 -9.5 t-7 -7l-7.5 -5t-9 -3.5t-8.5 -2t-9.5 -1t-9.5 -0.5h-9.5h-8h-41l-21 -112q-9 -44 -20.5 -55t-40.5 -11h-29q-37 0 -37 33q0 9 4 33l21 112h-305q-34 0 -50 6.5t-16 30.5zM948 287h223l56 293z" />
<glyph unicode="&#xbd;" horiz-adv-x="1542" d="M162 1208q0 18 18 33l256 195q23 14 37 14h43q31 0 31 -29v-10l-121 -686q-3 -16 -16 -28.5t-31 -12.5h-45q-31 0 -31 29q0 2 1 6t1 6l94 547l-153 -115q-11 -14 -31 -14q-9 0 -18 6l-29 39q-6 12 -6 20zM176 27q0 13 8 24l1045 1364q25 35 65 35h54q11 0 18.5 -7.5 t7.5 -17.5q0 -11 -8 -22l-1042 -1366q-27 -37 -64 -37h-59q-10 0 -17.5 8t-7.5 19zM938 33v10l6 33q5 26 41 57l371 313q55 47 55 117q0 44 -26.5 71.5t-75.5 27.5q-47 0 -92.5 -29.5t-75.5 -77.5q-13 -18 -37 -18q-13 0 -19 4l-32 20q-17 10 -17 25q0 14 13 30 q39 68 106 115t156 47q95 0 160 -59t65 -144q0 -135 -100 -217l-285 -241h270q12 0 20.5 -9.5t8.5 -23.5v-8l-6 -35q-3 -18 -17 -29.5t-28 -11.5h-428q-14 0 -23.5 9t-9.5 24z" />
<glyph unicode="&#xbe;" horiz-adv-x="1509" d="M106 831q0 29 19 37l45 21q12 4 20 4q4 0 6.5 -1.5t4.5 -3.5t5 -5.5t5 -5.5t9 -12t10.5 -14.5t11.5 -13.5t15 -13.5t17 -10t22 -8t26 -2.5q62 0 116 44t54 107q0 47 -32.5 75t-84.5 28h-37q-15 0 -24 8t-9 22q0 1 1 5t1 6l6 37q3 15 14.5 24.5t26.5 9.5h33 q54 0 93.5 34.5t39.5 84.5q0 35 -22 55.5t-62 20.5q-38 0 -65 -14t-38.5 -30t-24.5 -30t-27 -14q-5 0 -17 4l-28 23q-17 10 -17 28t10 33q84 111 211 111q84 0 141.5 -50.5t57.5 -124.5q0 -48 -27 -95.5t-75 -80.5q75 -57 75 -157q0 -118 -88.5 -200.5t-206.5 -82.5 q-121 0 -192 107q-19 30 -19 40zM238 27q0 13 8 24l1044 1364q25 35 66 35h53q11 0 19 -8t8 -17q0 -10 -9 -22l-1042 -1366q-27 -37 -63 -37h-60q-10 0 -17 8t-7 19zM831 215q0 5 3 14l4 21q6 19 10 24q9 18 24 33l402 414l45 37q16 14 43 14h16q43 0 43 -35q0 -11 -4 -39 l-71 -401h73q13 0 23 -10.5t10 -24.5v-8l-8 -35q-1 -7 -4 -12.5t-5.5 -9.5t-7 -7l-7.5 -5t-9 -3.5t-8.5 -2t-9.5 -1t-9.5 -0.5h-9.5h-8h-41l-20 -112q-9 -44 -20.5 -55t-41.5 -11h-29q-36 0 -36 33q0 9 4 33l20 112h-305q-34 0 -50 6.5t-16 30.5zM1004 287h223l55 293z" />
<glyph unicode="&#xbf;" horiz-adv-x="1056" d="M-4 -92q0 68 22 128t58 108.5t103 103t134 99t174 108.5l29 172q3 17 17.5 29t29.5 12h92q15 0 24 -9.5t9 -23.5v-8l-37 -219q-6 -38 -51 -66q-55 -32 -84 -49.5t-76.5 -47.5t-73.5 -49t-61.5 -47.5t-54 -51.5t-37.5 -51t-27 -56t-8 -58q0 -90 64 -145t172 -55 q189 0 356 110q11 8 27 8q21 0 30 -18l37 -63q4 -12 4 -19q0 -26 -24 -41q-110 -68 -214.5 -103.5t-226.5 -35.5q-186 0 -296.5 96.5t-110.5 241.5zM539 944q0 58 44.5 102t100.5 44q44 0 73 -29t29 -72q0 -14 -2 -22q-9 -51 -50.5 -87t-92.5 -36q-44 0 -73 28.5t-29 71.5z " />
<glyph unicode="&#xc0;" horiz-adv-x="1433" d="M-43 27q0 11 8 22l840 1360q23 41 63 41h80q18 0 32.5 -11.5t18.5 -29.5l363 -1360v-8q0 -18 -11.5 -29.5t-29.5 -11.5h-98q-39 0 -49 43l-84 334h-723l-203 -334q-25 -43 -62 -43h-114q-14 0 -22.5 7.5t-8.5 19.5zM453 524h604l-121 492q-34 141 -49 244h-8 q-2 -4 -22.5 -42t-52.5 -97t-61 -107zM786 1917q0 15 11 26t26 11h111q17 0 29.5 -11t17.5 -28l61 -229q2 -4 2 -11q0 -14 -10.5 -24.5t-25.5 -10.5h-41q-39 0 -54 31l-122 230q-5 7 -5 16z" />
<glyph unicode="&#xc1;" horiz-adv-x="1433" d="M-43 27q0 11 8 22l840 1360q23 41 63 41h80q18 0 32.5 -11.5t18.5 -29.5l363 -1360v-8q0 -18 -11.5 -29.5t-29.5 -11.5h-98q-39 0 -49 43l-84 334h-723l-203 -334q-25 -43 -62 -43h-114q-14 0 -22.5 7.5t-8.5 19.5zM453 524h604l-121 492q-34 141 -49 244h-8 q-2 -4 -22.5 -42t-52.5 -97t-61 -107zM850 1667q0 10 6 19l143 229q24 39 64 39h108q12 0 19.5 -7t7.5 -18q0 -13 -12 -28l-207 -230q-28 -31 -61 -31h-39q-29 0 -29 27z" />
<glyph unicode="&#xc2;" horiz-adv-x="1433" d="M-43 27q0 11 8 22l840 1360q23 41 63 41h80q18 0 32.5 -11.5t18.5 -29.5l363 -1360v-8q0 -18 -11.5 -29.5t-29.5 -11.5h-98q-39 0 -49 43l-84 334h-723l-203 -334q-25 -43 -62 -43h-114q-14 0 -22.5 7.5t-8.5 19.5zM453 524h604l-121 492q-34 141 -49 244h-8 q-2 -4 -22.5 -42t-52.5 -97t-61 -107zM664 1665q0 10 10 27l196 221q33 41 76 41h103q37 0 57 -41l119 -221q4 -12 4 -17q0 -14 -10 -24.5t-25 -10.5h-72q-39 0 -57 37l-82 162l-139 -162q-27 -37 -70 -37h-86q-24 0 -24 25z" />
<glyph unicode="&#xc3;" horiz-adv-x="1433" d="M-43 27q0 11 8 22l840 1360q23 41 63 41h80q18 0 32.5 -11.5t18.5 -29.5l363 -1360v-8q0 -18 -11.5 -29.5t-29.5 -11.5h-98q-39 0 -49 43l-84 334h-723l-203 -334q-25 -43 -62 -43h-114q-14 0 -22.5 7.5t-8.5 19.5zM453 524h604l-121 492q-34 141 -49 244h-8 q-2 -4 -22.5 -42t-52.5 -97t-61 -107zM578 1679v9q27 108 100 169.5t156 61.5q34 0 75.5 -20.5t73.5 -45t66.5 -45t56.5 -20.5q71 0 127 110q12 21 35 21h57q11 0 20 -9.5t9 -19.5q0 -1 -1 -4t-1 -4q-32 -108 -103.5 -174t-152.5 -66q-39 0 -79.5 21t-69 46t-64 46t-64.5 21 q-30 0 -54 -20.5t-37.5 -45t-30 -45t-33.5 -20.5h-58q-28 0 -28 34z" />
<glyph unicode="&#xc4;" horiz-adv-x="1433" d="M-43 27q0 11 8 22l840 1360q23 41 63 41h80q18 0 32.5 -11.5t18.5 -29.5l363 -1360v-8q0 -18 -11.5 -29.5t-29.5 -11.5h-98q-39 0 -49 43l-84 334h-723l-203 -334q-25 -43 -62 -43h-114q-14 0 -22.5 7.5t-8.5 19.5zM453 524h604l-121 492q-34 141 -49 244h-8 q-2 -4 -22.5 -42t-52.5 -97t-61 -107zM655 1780q0 12 2 18q7 45 43.5 76t81.5 31q39 0 65.5 -25t26.5 -63q0 -49 -40.5 -87t-88.5 -38q-39 0 -64.5 25.5t-25.5 62.5zM1063 1780q0 12 2 18q7 45 44.5 76t80.5 31q40 0 66 -25t26 -63q0 -49 -39.5 -87t-89.5 -38 q-38 0 -64 25.5t-26 62.5z" />
<glyph unicode="&#xc5;" horiz-adv-x="1433" d="M-43 27q0 11 8 22l840 1360q23 41 63 41h80q18 0 32.5 -11.5t18.5 -29.5l363 -1360v-8q0 -18 -11.5 -29.5t-29.5 -11.5h-98q-39 0 -49 43l-84 334h-723l-203 -334q-25 -43 -62 -43h-114q-14 0 -22.5 7.5t-8.5 19.5zM453 524h604l-121 492q-34 141 -49 244h-8 q-2 -4 -22.5 -42t-52.5 -97t-61 -107zM717 1806q0 31 4 47q19 106 103 177t190 71q94 0 160.5 -62t66.5 -151q0 -121 -92 -209t-211 -88q-94 0 -157.5 61.5t-63.5 153.5zM827 1819q0 -54 32.5 -88.5t86.5 -34.5q65 0 124.5 55t59.5 123q0 53 -32 88t-84 35 q-64 0 -118.5 -43.5t-64.5 -104.5q-4 -20 -4 -30z" />
<glyph unicode="&#xc6;" horiz-adv-x="2287" d="M-49 29q0 18 14 32l1329 1352q42 37 80 37h950q15 0 25 -10t10 -25v-8l-14 -78q-3 -17 -17.5 -30t-31.5 -13h-785l-81 -463h686q17 0 26.5 -9t9.5 -23v-9l-14 -77q-3 -19 -17.5 -31t-33.5 -12h-686l-88 -500h784q15 0 25 -10t10 -25v-8l-14 -78q-3 -17 -16.5 -29 t-30.5 -12h-922q-15 0 -25 10t-10 25v8l60 332h-660l-328 -334q-41 -41 -75 -41h-140q-9 0 -14.5 8.5t-5.5 20.5zM655 528h547l123 701z" />
<glyph unicode="&#xc7;" horiz-adv-x="1441" d="M154 586q0 181 66.5 345t180 283.5t272.5 190t337 70.5q156 0 285.5 -55.5t209.5 -155.5q11 -15 11 -29q0 -19 -15 -31l-61 -51q-18 -14 -35 -14q-16 0 -25 12q-146 158 -376 158q-124 0 -244.5 -53t-214 -143.5t-151.5 -224.5t-58 -284q0 -212 120 -337.5t320 -125.5 q222 0 445 178q15 11 28 11q20 0 31 -15l53 -69q6 -9 6 -19q0 -26 -20 -39q-232 -197 -512 -211l-16 -75q49 -40 49 -99q0 -96 -97 -164.5t-229 -68.5q-103 0 -130 16q-16 11 -17 27q0 2 1 5t1 5l6 31q2 12 13 24t26 15q18 0 49 -3t49 -3q83 0 136.5 30t53.5 74 q0 25 -22.5 45t-22.5 39q0 8 2 12l29 93q-165 16 -287 99.5t-184.5 214.5t-62.5 292z" />
<glyph unicode="&#xc8;" horiz-adv-x="1314" d="M119 35v8l241 1366q3 17 17 29t31 12h946q15 0 25 -10t10 -25v-10l-15 -80q-3 -17 -17 -27t-32 -10h-811l-82 -465h713q15 0 25 -9t10 -23v-11l-15 -75q-3 -18 -17 -30.5t-32 -12.5h-713l-88 -500h811q15 0 25 -9.5t10 -23.5v-10l-14 -80q-3 -18 -16 -28.5t-31 -10.5 h-946q-15 0 -25 10t-10 25zM723 1917q0 15 11 26t26 11h110q17 0 30 -11t18 -28l61 -229q2 -4 2 -11q0 -14 -11 -24.5t-26 -10.5h-41q-37 0 -53 31l-123 230q-4 6 -4 16z" />
<glyph unicode="&#xc9;" horiz-adv-x="1314" d="M119 35v8l241 1366q3 17 17 29t31 12h946q15 0 25 -10t10 -25v-10l-15 -80q-3 -17 -17 -27t-32 -10h-811l-82 -465h713q15 0 25 -9t10 -23v-11l-15 -75q-3 -18 -17 -30.5t-32 -12.5h-713l-88 -500h811q15 0 25 -9.5t10 -23.5v-10l-14 -80q-3 -18 -16 -28.5t-31 -10.5 h-946q-15 0 -25 10t-10 25zM795 1667q0 10 6 19l143 229q24 39 64 39h108q12 0 19.5 -7t7.5 -18q0 -12 -13 -28l-206 -230q-28 -31 -62 -31h-39q-28 0 -28 27z" />
<glyph unicode="&#xca;" horiz-adv-x="1314" d="M119 35v8l241 1366q3 17 17 29t31 12h946q15 0 25 -10t10 -25v-10l-15 -80q-3 -17 -17 -27t-32 -10h-811l-82 -465h713q15 0 25 -9t10 -23v-11l-15 -75q-3 -18 -17 -30.5t-32 -12.5h-713l-88 -500h811q15 0 25 -9.5t10 -23.5v-10l-14 -80q-3 -18 -16 -28.5t-31 -10.5 h-946q-15 0 -25 10t-10 25zM610 1665q0 9 11 27l196 221q33 41 76 41h102q38 0 58 -41l118 -221q5 -15 5 -17q0 -14 -10 -24.5t-25 -10.5h-72q-39 0 -57 37l-82 162l-139 -162q-27 -37 -70 -37h-86q-25 0 -25 25z" />
<glyph unicode="&#xcb;" horiz-adv-x="1314" d="M119 35v8l241 1366q3 17 17 29t31 12h946q15 0 25 -10t10 -25v-10l-15 -80q-3 -17 -17 -27t-32 -10h-811l-82 -465h713q15 0 25 -9t10 -23v-11l-15 -75q-3 -18 -17 -30.5t-32 -12.5h-713l-88 -500h811q15 0 25 -9.5t10 -23.5v-10l-14 -80q-3 -18 -16 -28.5t-31 -10.5 h-946q-15 0 -25 10t-10 25zM612 1780q0 12 2 18q7 45 43.5 76t81.5 31q39 0 65.5 -25t26.5 -63q0 -49 -40.5 -87t-88.5 -38q-39 0 -64.5 25.5t-25.5 62.5zM1020 1780q0 12 2 18q7 45 44.5 76t80.5 31q40 0 66 -25t26 -63q0 -49 -39.5 -87t-89.5 -38q-38 0 -64 25.5t-26 62.5 z" />
<glyph unicode="&#xcc;" horiz-adv-x="522" d="M119 35v8l241 1366q3 17 17 29t31 12h94q15 0 25 -10t10 -25v-8l-242 -1364q-3 -19 -16.5 -31t-30.5 -12h-94q-15 0 -25 10t-10 25zM346 1917q0 15 11 26t26 11h111q17 0 29.5 -11t17.5 -28l61 -229q2 -4 2 -11q0 -14 -11 -24.5t-26 -10.5h-41q-38 0 -53 31l-123 230 q-4 6 -4 16z" />
<glyph unicode="&#xcd;" horiz-adv-x="522" d="M119 35v8l241 1366q3 17 17 29t31 12h94q15 0 25 -10t10 -25v-8l-242 -1364q-3 -19 -16.5 -31t-30.5 -12h-94q-15 0 -25 10t-10 25zM385 1667q0 10 6 19l144 229q24 39 63 39h109q12 0 19 -7t7 -18q0 -13 -12 -28l-207 -230q-28 -31 -61 -31h-39q-29 0 -29 27z" />
<glyph unicode="&#xce;" horiz-adv-x="522" d="M119 35v8l241 1366q3 17 17 29t31 12h94q15 0 25 -10t10 -25v-8l-242 -1364q-3 -19 -16.5 -31t-30.5 -12h-94q-15 0 -25 10t-10 25zM215 1665q0 10 10 27l197 221q33 41 76 41h102q37 0 57 -41l119 -221q4 -12 4 -17q0 -14 -10 -24.5t-25 -10.5h-71q-40 0 -58 37l-81 162 l-140 -162q-27 -37 -69 -37h-86q-25 0 -25 25z" />
<glyph unicode="&#xcf;" horiz-adv-x="522" d="M119 35v8l241 1366q3 17 17 29t31 12h94q15 0 25 -10t10 -25v-8l-242 -1364q-3 -19 -16.5 -31t-30.5 -12h-94q-15 0 -25 10t-10 25zM205 1780q0 12 2 18q7 45 43.5 76t81.5 31q39 0 65.5 -25t26.5 -63q0 -49 -40.5 -87t-88.5 -38q-39 0 -64.5 25.5t-25.5 62.5zM612 1780 q0 12 2 18q7 45 44.5 76t80.5 31q40 0 66 -25t26 -63q0 -49 -39.5 -87t-89.5 -38q-38 0 -64 25.5t-26 62.5z" />
<glyph unicode="&#xd0;" horiz-adv-x="1566" d="M102 678v8l15 82q3 17 16.5 29t30.5 12h88l106 600q3 17 17 29t31 12h468q307 0 489.5 -151t182.5 -422q0 -84 -14 -164q-62 -347 -299 -530t-590 -183h-491q-15 0 -25 10t-10 25v8l106 602h-88q-15 0 -24 9.5t-9 23.5zM313 162h351q141 0 267.5 48t222 135t152 219 t56.5 290q0 206 -125.5 319t-351.5 113h-373l-84 -477h277q17 0 26.5 -10t9.5 -25v-8l-14 -80q-3 -17 -17.5 -29t-33.5 -12h-277z" />
<glyph unicode="&#xd1;" horiz-adv-x="1540" d="M119 35v8l241 1366q3 17 17 29t31 12h90q24 0 39 -27l632 -1114h17q16 149 37 260l153 840q3 17 16.5 29t30.5 12h95q15 0 24.5 -10t9.5 -25v-8l-241 -1364q-3 -19 -16.5 -31t-30.5 -12h-95q-22 0 -41 23q0 1 -121 212.5t-279 490.5t-232 417h-15q-2 -11 -14.5 -105.5 t-22.5 -158.5l-149 -836q-3 -19 -16.5 -31t-30.5 -12h-94q-15 0 -25 10t-10 25zM631 1679v9q27 108 100 169.5t156 61.5q34 0 75.5 -20.5t73.5 -45t66.5 -45t56.5 -20.5q71 0 127 110q12 21 35 21h57q10 0 19.5 -9.5t9.5 -19.5q0 -1 -1 -4t-1 -4q-32 -108 -103.5 -174 t-152.5 -66q-39 0 -79.5 21t-69 46t-64 46t-64.5 21q-30 0 -54 -20.5t-37.5 -45t-30 -45t-33.5 -20.5h-58q-28 0 -28 34z" />
<glyph unicode="&#xd2;" horiz-adv-x="1644" d="M154 586q0 174 66.5 337t179.5 284.5t272.5 194.5t335.5 73q185 0 326 -83t214.5 -222.5t73.5 -311.5q0 -72 -12 -145q-38 -209 -159.5 -378t-301.5 -264.5t-383 -95.5q-179 0 -319.5 79.5t-216.5 218.5t-76 313zM336 600q0 -207 119.5 -333t318.5 -126q124 0 244 53.5 t213.5 145.5t151 225.5t57.5 282.5q0 210 -119.5 335.5t-319.5 125.5q-98 0 -195.5 -33.5t-181.5 -97t-149 -148.5t-102 -197t-37 -233zM897 1917q0 15 11 26t26 11h110q17 0 30 -11t18 -28l61 -229q2 -4 2 -11q0 -14 -11 -24.5t-26 -10.5h-41q-37 0 -53 31l-123 230 q-4 6 -4 16z" />
<glyph unicode="&#xd3;" horiz-adv-x="1644" d="M154 586q0 174 66.5 337t179.5 284.5t272.5 194.5t335.5 73q185 0 326 -83t214.5 -222.5t73.5 -311.5q0 -72 -12 -145q-38 -209 -159.5 -378t-301.5 -264.5t-383 -95.5q-179 0 -319.5 79.5t-216.5 218.5t-76 313zM336 600q0 -207 119.5 -333t318.5 -126q124 0 244 53.5 t213.5 145.5t151 225.5t57.5 282.5q0 210 -119.5 335.5t-319.5 125.5q-98 0 -195.5 -33.5t-181.5 -97t-149 -148.5t-102 -197t-37 -233zM952 1667q0 10 6 19l144 229q24 39 63 39h109q12 0 19 -7t7 -18q0 -13 -12 -28l-207 -230q-28 -31 -61 -31h-39q-29 0 -29 27z" />
<glyph unicode="&#xd4;" horiz-adv-x="1644" d="M154 586q0 174 66.5 337t179.5 284.5t272.5 194.5t335.5 73q185 0 326 -83t214.5 -222.5t73.5 -311.5q0 -72 -12 -145q-38 -209 -159.5 -378t-301.5 -264.5t-383 -95.5q-179 0 -319.5 79.5t-216.5 218.5t-76 313zM336 600q0 -207 119.5 -333t318.5 -126q124 0 244 53.5 t213.5 145.5t151 225.5t57.5 282.5q0 210 -119.5 335.5t-319.5 125.5q-98 0 -195.5 -33.5t-181.5 -97t-149 -148.5t-102 -197t-37 -233zM772 1665q0 10 10 27l197 221q33 41 76 41h102q37 0 57 -41l119 -221q4 -12 4 -17q0 -14 -9.5 -24.5t-24.5 -10.5h-72q-39 0 -57 37 l-82 162l-140 -162q-27 -37 -69 -37h-86q-25 0 -25 25z" />
<glyph unicode="&#xd5;" horiz-adv-x="1644" d="M154 586q0 174 66.5 337t179.5 284.5t272.5 194.5t335.5 73q185 0 326 -83t214.5 -222.5t73.5 -311.5q0 -72 -12 -145q-38 -209 -159.5 -378t-301.5 -264.5t-383 -95.5q-179 0 -319.5 79.5t-216.5 218.5t-76 313zM336 600q0 -207 119.5 -333t318.5 -126q124 0 244 53.5 t213.5 145.5t151 225.5t57.5 282.5q0 210 -119.5 335.5t-319.5 125.5q-98 0 -195.5 -33.5t-181.5 -97t-149 -148.5t-102 -197t-37 -233zM688 1679v9q27 108 100 169.5t156 61.5q34 0 75.5 -20.5t74 -45t67 -45t56.5 -20.5q70 0 126 110q12 21 35 21h58q10 0 19 -9t9 -20 q0 -1 -1 -4t-1 -4q-32 -108 -103.5 -174t-152.5 -66q-39 0 -79.5 21t-69 46t-63.5 46t-64 21q-30 0 -54.5 -20.5t-37.5 -45t-30 -45t-34 -20.5h-57q-13 0 -21 9.5t-8 24.5z" />
<glyph unicode="&#xd6;" horiz-adv-x="1644" d="M154 586q0 174 66.5 337t179.5 284.5t272.5 194.5t335.5 73q185 0 326 -83t214.5 -222.5t73.5 -311.5q0 -72 -12 -145q-38 -209 -159.5 -378t-301.5 -264.5t-383 -95.5q-179 0 -319.5 79.5t-216.5 218.5t-76 313zM336 600q0 -207 119.5 -333t318.5 -126q124 0 244 53.5 t213.5 145.5t151 225.5t57.5 282.5q0 210 -119.5 335.5t-319.5 125.5q-98 0 -195.5 -33.5t-181.5 -97t-149 -148.5t-102 -197t-37 -233zM764 1780q0 12 2 18q7 45 43.5 76t81.5 31q39 0 65.5 -25t26.5 -63q0 -49 -40.5 -87t-88.5 -38q-39 0 -64.5 25.5t-25.5 62.5z M1171 1780q0 9 3 18q7 45 44 76t80 31q40 0 66.5 -25t26.5 -63q0 -49 -39.5 -87t-89.5 -38q-38 0 -64.5 25.5t-26.5 62.5z" />
<glyph unicode="&#xd7;" d="M205.5 1047.5q-0.5 17.5 11.5 27.5l51 51q12 14 30 14t30 -14l340 -340l342 340q12 12 29.5 12.5t27.5 -10.5l53 -53q10 -12 10 -29.5t-10 -29.5l-342 -340l342 -340q10 -14 10 -31.5t-10 -30.5l-51 -49q-12 -11 -29.5 -11t-29.5 11l-342 342l-338 -340 q-13 -12 -31 -11.5t-31 13.5l-49 50q-12 12 -12 29.5t12 27.5l340 340l-340 342q-13 12 -13.5 29.5z" />
<glyph unicode="&#xd8;" horiz-adv-x="1644" d="M152 588q0 173 66.5 335.5t179.5 283.5t272.5 194.5t335.5 73.5q179 0 325 -84l35 45q13 17 35 29t39 12h59q21 0 21 -17q0 -9 -11 -24l-86 -111q94 -85 145.5 -205.5t51.5 -259.5q0 -181 -70.5 -346t-187.5 -282.5t-274 -187t-324 -69.5q-184 0 -326 82l-30 -39 q-13 -18 -34.5 -30.5t-39.5 -12.5h-62q-20 0 -20 17q0 11 12 26l82 107q-93 84 -143.5 203t-50.5 260zM334 602q0 -209 123 -338l768 991q-101 56 -226 56q-123 0 -243 -53.5t-213.5 -145t-151 -226t-57.5 -284.5zM545 195q97 -54 227 -54q123 0 243 54t213.5 146 t151.5 225.5t58 281.5q0 212 -123 338z" />
<glyph unicode="&#xd9;" horiz-adv-x="1572" d="M197 485q0 69 12 142l139 782q3 17 16.5 29t30.5 12h94q15 0 25 -10t10 -25v-8l-135 -760q-10 -54 -10 -121q0 -179 90.5 -282t267.5 -103q211 0 360.5 140.5t188.5 365.5l135 762q3 18 17 29.5t32 11.5h95q13 0 22.5 -9.5t9.5 -23.5v-8l-139 -782q-53 -294 -252 -473 t-477 -179q-244 0 -388 138t-144 372zM852 1917q0 15 11 26t26 11h110q17 0 30 -11t18 -28l61 -229q2 -4 2 -11q0 -14 -11 -24.5t-26 -10.5h-41q-38 0 -53 31l-123 230q-4 6 -4 16z" />
<glyph unicode="&#xda;" horiz-adv-x="1572" d="M197 485q0 69 12 142l139 782q3 17 16.5 29t30.5 12h94q15 0 25 -10t10 -25v-8l-135 -760q-10 -54 -10 -121q0 -179 90.5 -282t267.5 -103q211 0 360.5 140.5t188.5 365.5l135 762q3 18 17 29.5t32 11.5h95q13 0 22.5 -9.5t9.5 -23.5v-8l-139 -782q-53 -294 -252 -473 t-477 -179q-244 0 -388 138t-144 372zM913 1667q0 9 7 19l143 229q24 39 63 39h109q12 0 19.5 -7t7.5 -18q0 -12 -13 -28l-207 -230q-28 -31 -61 -31h-39q-29 0 -29 27z" />
<glyph unicode="&#xdb;" horiz-adv-x="1572" d="M197 485q0 69 12 142l139 782q3 17 16.5 29t30.5 12h94q15 0 25 -10t10 -25v-8l-135 -760q-10 -54 -10 -121q0 -179 90.5 -282t267.5 -103q211 0 360.5 140.5t188.5 365.5l135 762q3 18 17 29.5t32 11.5h95q13 0 22.5 -9.5t9.5 -23.5v-8l-139 -782q-53 -294 -252 -473 t-477 -179q-244 0 -388 138t-144 372zM733 1665q0 10 10 27l197 221q33 41 76 41h102q38 0 58 -41l118 -221q4 -12 4 -17q0 -14 -9.5 -24.5t-24.5 -10.5h-72q-39 0 -57 37l-82 162l-140 -162q-27 -37 -69 -37h-86q-25 0 -25 25z" />
<glyph unicode="&#xdc;" horiz-adv-x="1572" d="M197 485q0 69 12 142l139 782q3 17 16.5 29t30.5 12h94q15 0 25 -10t10 -25v-8l-135 -760q-10 -54 -10 -121q0 -179 90.5 -282t267.5 -103q211 0 360.5 140.5t188.5 365.5l135 762q3 18 17 29.5t32 11.5h95q13 0 22.5 -9.5t9.5 -23.5v-8l-139 -782q-53 -294 -252 -473 t-477 -179q-244 0 -388 138t-144 372zM727 1780q0 12 2 18q7 45 43.5 76t81.5 31q39 0 65.5 -25t26.5 -63q0 -49 -40.5 -87t-88.5 -38q-39 0 -64.5 25.5t-25.5 62.5zM1135 1780q0 12 2 18q7 45 44.5 76t80.5 31q40 0 66 -25t26 -63q0 -49 -39.5 -87t-89.5 -38 q-38 0 -64 25.5t-26 62.5z" />
<glyph unicode="&#xdd;" horiz-adv-x="1327" d="M197 1409q0 16 11 28.5t28 12.5h94q40 0 57 -35l336 -655l567 655q30 35 68 35h119q13 0 20.5 -8.5t7.5 -20.5q0 -13 -10 -26l-702 -807l-97 -545q-3 -19 -16.5 -31t-30.5 -12h-94q-15 0 -25 10t-10 25v8l96 545l-415 807q-4 8 -4 14zM797 1667q0 10 6 19l143 229 q24 39 64 39h108q12 0 19.5 -7t7.5 -18q0 -13 -12 -28l-207 -230q-28 -31 -62 -31h-39q-28 0 -28 27z" />
<glyph unicode="&#xde;" horiz-adv-x="1323" d="M111 35v8l241 1366q3 17 16.5 29t30.5 12h95q15 0 24.5 -10t9.5 -25v-8l-39 -211h369q214 0 344.5 -105t130.5 -278q0 -244 -172.5 -391.5t-441.5 -147.5h-391l-41 -233q-3 -17 -16.5 -29t-30.5 -12h-95q-15 0 -24.5 10t-9.5 25zM356 436h392q166 0 284.5 100.5 t118.5 254.5q0 113 -72 178t-202 65h-414z" />
<glyph unicode="&#xdf;" horiz-adv-x="1259" d="M96 35v8l172 975q90 510 525 510q156 0 253 -83.5t97 -203.5q0 -115 -80 -227.5t-227 -184.5l-2 -8q167 -32 253.5 -135.5t86.5 -230.5q0 -95 -41 -184t-108 -153.5t-157 -103.5t-184 -39q-72 0 -155 27.5t-83 60.5q0 9 7 23l30 64q6 12 18.5 20t24.5 8q5 0 17 -4 q77 -41 145 -41q116 0 209.5 93.5t93.5 209.5q0 46 -20 90.5t-58 83t-102.5 63t-146.5 25.5q-17 0 -27 10t-10 25v8l16 95q3 19 19 35t38 24q109 43 183.5 122t74.5 183q0 70 -44 119t-134 49q-56 0 -104.5 -15.5t-97 -52t-84.5 -108.5t-54 -174l-172 -975q-3 -18 -17 -30.5 t-30 -12.5h-90q-15 0 -25 10t-10 25z" />
<glyph unicode="&#xe0;" horiz-adv-x="1107" d="M66 252q0 73 21.5 131.5t57 98.5t90 69t110 46t128 26.5t133.5 12.5t137 3h93l10 61q6 35 6 62q0 89 -51.5 135.5t-165.5 46.5q-123 0 -287 -57q-12 -6 -22 -6q-17 0 -27 26l-14 49q-4 8 -4 17q0 23 16 31q61 35 167.5 60.5t205.5 25.5q69 0 130 -18.5t111.5 -55 t80.5 -100t30 -146.5q0 -49 -8 -96l-113 -631q-3 -19 -16.5 -31t-32.5 -12h-80q-17 0 -27 10t-10 25v8l21 109h-15q-60 -76 -161.5 -126.5t-204.5 -50.5q-130 0 -219.5 79.5t-89.5 197.5zM240 268q0 -72 47 -110.5t141 -38.5q49 0 108 21t113 56.5t95 89.5t51 113l20 123 h-80q-109 0 -192.5 -11.5t-155 -38.5t-109.5 -78.5t-38 -125.5zM557 1532q0 15 11 26t26 11h111q17 0 29.5 -11t17.5 -28l61 -230q2 -4 2 -10q0 -14 -11 -24.5t-26 -10.5h-41q-37 0 -53 31l-123 230q-4 6 -4 16z" />
<glyph unicode="&#xe1;" horiz-adv-x="1107" d="M66 252q0 73 21.5 131.5t57 98.5t90 69t110 46t128 26.5t133.5 12.5t137 3h93l10 61q6 35 6 62q0 89 -51.5 135.5t-165.5 46.5q-123 0 -287 -57q-12 -6 -22 -6q-17 0 -27 26l-14 49q-4 8 -4 17q0 23 16 31q61 35 167.5 60.5t205.5 25.5q69 0 130 -18.5t111.5 -55 t80.5 -100t30 -146.5q0 -49 -8 -96l-113 -631q-3 -19 -16.5 -31t-32.5 -12h-80q-17 0 -27 10t-10 25v8l21 109h-15q-60 -76 -161.5 -126.5t-204.5 -50.5q-130 0 -219.5 79.5t-89.5 197.5zM240 268q0 -72 47 -110.5t141 -38.5q49 0 108 21t113 56.5t95 89.5t51 113l20 123 h-80q-109 0 -192.5 -11.5t-155 -38.5t-109.5 -78.5t-38 -125.5zM608 1282q0 9 6 18l144 230q24 39 63 39h109q12 0 19 -7t7 -18q0 -13 -12 -28l-207 -230q-28 -31 -61 -31h-39q-29 0 -29 27z" />
<glyph unicode="&#xe2;" horiz-adv-x="1107" d="M66 252q0 73 21.5 131.5t57 98.5t90 69t110 46t128 26.5t133.5 12.5t137 3h93l10 61q6 35 6 62q0 89 -51.5 135.5t-165.5 46.5q-123 0 -287 -57q-12 -6 -22 -6q-17 0 -27 26l-14 49q-4 8 -4 17q0 23 16 31q61 35 167.5 60.5t205.5 25.5q69 0 130 -18.5t111.5 -55 t80.5 -100t30 -146.5q0 -49 -8 -96l-113 -631q-3 -19 -16.5 -31t-32.5 -12h-80q-17 0 -27 10t-10 25v8l21 109h-15q-60 -76 -161.5 -126.5t-204.5 -50.5q-130 0 -219.5 79.5t-89.5 197.5zM240 268q0 -72 47 -110.5t141 -38.5q49 0 108 21t113 56.5t95 89.5t51 113l20 123 h-80q-109 0 -192.5 -11.5t-155 -38.5t-109.5 -78.5t-38 -125.5zM428 1280q0 10 10 27l197 221q33 41 76 41h102q37 0 57 -41l119 -221q4 -12 4 -17q0 -14 -10 -24.5t-25 -10.5h-71q-40 0 -58 37l-81 162l-140 -162q-27 -37 -69 -37h-86q-25 0 -25 25z" />
<glyph unicode="&#xe3;" horiz-adv-x="1107" d="M66 252q0 73 21.5 131.5t57 98.5t90 69t110 46t128 26.5t133.5 12.5t137 3h93l10 61q6 35 6 62q0 89 -51.5 135.5t-165.5 46.5q-123 0 -287 -57q-12 -6 -22 -6q-17 0 -27 26l-14 49q-4 8 -4 17q0 23 16 31q61 35 167.5 60.5t205.5 25.5q69 0 130 -18.5t111.5 -55 t80.5 -100t30 -146.5q0 -49 -8 -96l-113 -631q-3 -19 -16.5 -31t-32.5 -12h-80q-17 0 -27 10t-10 25v8l21 109h-15q-60 -76 -161.5 -126.5t-204.5 -50.5q-130 0 -219.5 79.5t-89.5 197.5zM240 268q0 -72 47 -110.5t141 -38.5q49 0 108 21t113 56.5t95 89.5t51 113l20 123 h-80q-109 0 -192.5 -11.5t-155 -38.5t-109.5 -78.5t-38 -125.5zM348 1294v9q27 108 100 169.5t156 61.5q43 0 97 -33t101.5 -65.5t74.5 -32.5q71 0 127 110q12 21 34 21h58q10 0 19 -9t9 -20q0 -1 -1 -4t-1 -4q-32 -108 -103.5 -174t-152.5 -66q-39 0 -79.5 21t-69 46 t-63.5 46t-64 21q-30 0 -54.5 -20.5t-37.5 -45t-30 -45t-34 -20.5h-57q-13 0 -21 9.5t-8 24.5z" />
<glyph unicode="&#xe4;" horiz-adv-x="1107" d="M66 252q0 73 21.5 131.5t57 98.5t90 69t110 46t128 26.5t133.5 12.5t137 3h93l10 61q6 35 6 62q0 89 -51.5 135.5t-165.5 46.5q-123 0 -287 -57q-12 -6 -22 -6q-17 0 -27 26l-14 49q-4 8 -4 17q0 23 16 31q61 35 167.5 60.5t205.5 25.5q69 0 130 -18.5t111.5 -55 t80.5 -100t30 -146.5q0 -49 -8 -96l-113 -631q-3 -19 -16.5 -31t-32.5 -12h-80q-17 0 -27 10t-10 25v8l21 109h-15q-60 -76 -161.5 -126.5t-204.5 -50.5q-130 0 -219.5 79.5t-89.5 197.5zM240 268q0 -72 47 -110.5t141 -38.5q49 0 108 21t113 56.5t95 89.5t51 113l20 123 h-80q-109 0 -192.5 -11.5t-155 -38.5t-109.5 -78.5t-38 -125.5zM424 1395q0 12 2 18q7 45 43.5 76t81.5 31q39 0 65.5 -25t26.5 -63q0 -49 -40.5 -87t-88.5 -38q-39 0 -64.5 25.5t-25.5 62.5zM831 1395q0 9 3 18q7 45 44 76t80 31q40 0 66.5 -25t26.5 -63q0 -49 -39.5 -87 t-89.5 -38q-38 0 -64.5 25.5t-26.5 62.5z" />
<glyph unicode="&#xe5;" horiz-adv-x="1107" d="M66 252q0 73 21.5 131.5t57 98.5t90 69t110 46t128 26.5t133.5 12.5t137 3h93l10 61q6 35 6 62q0 89 -51.5 135.5t-165.5 46.5q-123 0 -287 -57q-12 -6 -22 -6q-17 0 -27 26l-14 49q-4 8 -4 17q0 23 16 31q61 35 167.5 60.5t205.5 25.5q69 0 130 -18.5t111.5 -55 t80.5 -100t30 -146.5q0 -49 -8 -96l-113 -631q-3 -19 -16.5 -31t-32.5 -12h-80q-17 0 -27 10t-10 25v8l21 109h-15q-60 -76 -161.5 -126.5t-204.5 -50.5q-130 0 -219.5 79.5t-89.5 197.5zM240 268q0 -72 47 -110.5t141 -38.5q49 0 108 21t113 56.5t95 89.5t51 113l20 123 h-80q-109 0 -192.5 -11.5t-155 -38.5t-109.5 -78.5t-38 -125.5zM481 1421q0 31 4 47q19 106 103 177t190 71q94 0 161 -62t67 -151q0 -121 -92.5 -209t-211.5 -88q-94 0 -157.5 61.5t-63.5 153.5zM592 1434q0 -54 32.5 -88.5t86.5 -34.5q65 0 124.5 55t59.5 123 q0 53 -32.5 88t-84.5 35q-63 0 -117.5 -43.5t-64.5 -104.5q-4 -20 -4 -30z" />
<glyph unicode="&#xe6;" horiz-adv-x="1857" d="M61 242q0 73 22 132.5t58 100.5t90 71.5t111 49t128.5 29.5t134.5 14.5t136 3.5h90l9 43q6 37 6 70q0 87 -47 136t-164 50q-141 0 -299 -55q-12 -6 -23 -6q-16 0 -26 26l-15 49q-4 8 -4 17q0 23 17 31q61 35 167 60.5t205 25.5q107 -2 195.5 -50t124.5 -145 q85 94 199 144.5t241 50.5q185 0 291.5 -101t106.5 -293q0 -104 -17 -161q-12 -39 -45 -39h-776q-6 -37 -6 -68q0 -139 85 -223t222 -84q140 0 321 78q12 4 19 4q26 0 33 -23l16 -63q0 -2 1 -8t1 -7q0 -15 -16 -26q-66 -42 -178 -71.5t-213 -29.5q-157 0 -264 66.5 t-154 185.5q-84 -123 -206.5 -187.5t-262.5 -64.5q-133 0 -223.5 75.5t-90.5 191.5zM242 268q0 -68 45.5 -105.5t138.5 -37.5q64 0 142 34t143.5 100t79.5 142l18 109h-80q-108 0 -189.5 -10.5t-152 -35.5t-108 -74.5t-37.5 -121.5zM1008 616h634q7 44 7 70 q0 121 -64.5 190.5t-175.5 69.5q-134 0 -246.5 -89.5t-154.5 -240.5z" />
<glyph unicode="&#xe7;" horiz-adv-x="1028" d="M98 403q0 163 49 295t133.5 216.5t194.5 130t236 45.5q212 0 370 -148q6 -12 6 -24q0 -23 -14 -37l-47 -50q-16 -16 -35 -16q-14 0 -24 10q-69 52 -130 80.5t-130 28.5q-83 0 -160 -34.5t-138.5 -97.5t-98 -161t-36.5 -215q0 -143 69.5 -219t199.5 -76q134 0 305 123 q10 10 29 10q20 0 28 -14l45 -66q6 -9 6 -20q0 -22 -20 -39q-172 -126 -334 -145l-18 -78q49 -40 49 -99q0 -96 -97 -164.5t-229 -68.5q-103 0 -130 16q-16 11 -17 27q0 2 1 5t1 5l6 31q2 12 13 24t26 15q19 0 49 -3t49 -3q83 0 137 30t54 74q0 25 -22.5 45t-22.5 39 q0 8 2 12l26 93q-176 15 -278.5 126.5t-102.5 296.5z" />
<glyph unicode="&#xe8;" horiz-adv-x="1157" d="M98 412q0 153 50.5 282t135.5 214.5t197 133.5t236 48q184 0 290.5 -101t106.5 -293q0 -107 -16 -161q-12 -39 -45 -39h-777q-6 -37 -6 -68q0 -139 85.5 -223t222.5 -84q140 0 321 78q12 4 19 4q25 0 32 -23l17 -63q0 -2 1 -8t1 -7q0 -15 -17 -26q-66 -42 -178 -71.5 t-213 -29.5q-213 0 -338 119t-125 318zM307 616h635q6 37 6 70q0 121 -64 190.5t-175 69.5q-134 0 -247 -89.5t-155 -240.5zM588 1532q0 15 11 26t26 11h110q17 0 29.5 -11t17.5 -28l62 -230q2 -4 2 -10q0 -14 -11 -24.5t-26 -10.5h-41q-38 0 -53 31l-123 230q-4 6 -4 16z " />
<glyph unicode="&#xe9;" horiz-adv-x="1157" d="M98 412q0 153 50.5 282t135.5 214.5t197 133.5t236 48q184 0 290.5 -101t106.5 -293q0 -107 -16 -161q-12 -39 -45 -39h-777q-6 -37 -6 -68q0 -139 85.5 -223t222.5 -84q140 0 321 78q12 4 19 4q25 0 32 -23l17 -63q0 -2 1 -8t1 -7q0 -15 -17 -26q-66 -42 -178 -71.5 t-213 -29.5q-213 0 -338 119t-125 318zM307 616h635q6 37 6 70q0 121 -64 190.5t-175 69.5q-134 0 -247 -89.5t-155 -240.5zM639 1282q0 9 6 18l143 230q24 39 64 39h109q12 0 19 -7t7 -18q0 -13 -12 -28l-207 -230q-28 -31 -61 -31h-39q-29 0 -29 27z" />
<glyph unicode="&#xea;" horiz-adv-x="1157" d="M98 412q0 153 50.5 282t135.5 214.5t197 133.5t236 48q184 0 290.5 -101t106.5 -293q0 -107 -16 -161q-12 -39 -45 -39h-777q-6 -37 -6 -68q0 -139 85.5 -223t222.5 -84q140 0 321 78q12 4 19 4q25 0 32 -23l17 -63q0 -2 1 -8t1 -7q0 -15 -17 -26q-66 -42 -178 -71.5 t-213 -29.5q-213 0 -338 119t-125 318zM307 616h635q6 37 6 70q0 121 -64 190.5t-175 69.5q-134 0 -247 -89.5t-155 -240.5zM463 1280q0 10 10 27l197 221q33 41 75 41h103q37 0 57 -41l119 -221q4 -12 4 -17q0 -14 -10 -24.5t-25 -10.5h-71q-40 0 -58 37l-82 162l-139 -162 q-27 -37 -70 -37h-86q-24 0 -24 25z" />
<glyph unicode="&#xeb;" horiz-adv-x="1157" d="M98 412q0 153 50.5 282t135.5 214.5t197 133.5t236 48q184 0 290.5 -101t106.5 -293q0 -107 -16 -161q-12 -39 -45 -39h-777q-6 -37 -6 -68q0 -139 85.5 -223t222.5 -84q140 0 321 78q12 4 19 4q25 0 32 -23l17 -63q0 -2 1 -8t1 -7q0 -15 -17 -26q-66 -42 -178 -71.5 t-213 -29.5q-213 0 -338 119t-125 318zM307 616h635q6 37 6 70q0 121 -64 190.5t-175 69.5q-134 0 -247 -89.5t-155 -240.5zM457 1395q0 12 2 18q7 45 43.5 76t81.5 31q39 0 65.5 -25t26.5 -63q0 -49 -40.5 -87t-88.5 -38q-39 0 -64.5 25.5t-25.5 62.5zM864 1395q0 12 2 18 q7 45 44.5 76t80.5 31q40 0 66 -25t26 -63q0 -49 -39.5 -87t-89.5 -38q-38 0 -64 25.5t-26 62.5z" />
<glyph unicode="&#xec;" horiz-adv-x="477" d="M96 37v8l174 979q3 17 17.5 29t31.5 12h89q15 0 24.5 -10t9.5 -25v-8l-174 -979q-3 -19 -16.5 -31t-30.5 -12h-88q-16 0 -26.5 10t-10.5 27zM256 1532q0 15 11 26t26 11h110q17 0 30 -11t18 -28l61 -230q2 -4 2 -10q0 -14 -11 -24.5t-26 -10.5h-41q-38 0 -53 31l-123 230 q-4 6 -4 16z" />
<glyph unicode="&#xed;" horiz-adv-x="477" d="M96 37v8l174 979q3 17 17.5 29t31.5 12h89q15 0 24.5 -10t9.5 -25v-8l-174 -979q-3 -19 -16.5 -31t-30.5 -12h-88q-16 0 -26.5 10t-10.5 27zM293 1282q0 9 6 18l143 230q24 39 64 39h108q12 0 19.5 -7t7.5 -18q0 -13 -12 -28l-207 -230q-28 -31 -62 -31h-38q-29 0 -29 27 z" />
<glyph unicode="&#xee;" horiz-adv-x="477" d="M96 37v8l174 979q3 17 17.5 29t31.5 12h89q15 0 24.5 -10t9.5 -25v-8l-174 -979q-3 -19 -16.5 -31t-30.5 -12h-88q-16 0 -26.5 10t-10.5 27zM121 1280q0 10 10 27l197 221q33 41 75 41h103q37 0 57 -41l119 -221q4 -12 4 -17q0 -14 -10 -24.5t-25 -10.5h-71q-40 0 -58 37 l-82 162l-139 -162q-27 -37 -70 -37h-86q-24 0 -24 25z" />
<glyph unicode="&#xef;" horiz-adv-x="477" d="M96 37v8l174 979q3 17 17.5 29t31.5 12h89q15 0 24.5 -10t9.5 -25v-8l-174 -979q-3 -19 -16.5 -31t-30.5 -12h-88q-16 0 -26.5 10t-10.5 27zM113 1395q0 12 2 18q7 45 43.5 76t81.5 31q39 0 65.5 -25t26.5 -63q0 -49 -40.5 -87t-88.5 -38q-39 0 -64.5 25.5t-25.5 62.5z M520 1395q0 12 2 18q7 45 44.5 76t80.5 31q40 0 66 -25t26 -63q0 -49 -39.5 -87t-89.5 -38q-38 0 -64 25.5t-26 62.5z" />
<glyph unicode="&#xf0;" horiz-adv-x="1159" d="M94 389q0 119 32.5 222t88.5 177t129.5 127t157 79t170.5 26q229 0 307 -143l16 2q-16 120 -62.5 214.5t-125.5 188.5l-232 -129q-16 -8 -24 -8q-25 0 -35 24l-8 21q-4 8 -4 14q0 26 28 43l201 109q-78 78 -96 94q-12 10 -12 25q0 26 18 36l39 29q18 12 35 12 q19 0 31 -10q106 -95 120 -110l195 110q8 4 16 4q27 0 37 -20l10 -23q2 -4 2 -14q0 -30 -26 -43l-164 -90q219 -269 219 -592q0 -190 -51 -343t-138.5 -249t-199.5 -146.5t-238 -50.5q-195 0 -315.5 109t-120.5 305zM279 401q0 -135 68.5 -201.5t189.5 -66.5q54 0 104 12.5 t100 42t90 74t71 112.5t46 154q8 62 8 84q0 71 -24.5 124t-66.5 82t-88.5 42.5t-98.5 13.5q-74 0 -144.5 -31.5t-128 -89t-92 -149.5t-34.5 -203z" />
<glyph unicode="&#xf1;" horiz-adv-x="1175" d="M96 35v8l174 981q3 17 16.5 29t30.5 12h89q14 0 23 -10t9 -25v-8l-22 -119h14q158 187 352 187q148 0 229 -78.5t81 -223.5q0 -39 -11 -114l-112 -633q-3 -17 -17.5 -29t-29.5 -12h-91q-15 0 -24.5 10t-9.5 25v8l106 602q8 47 8 98q0 97 -42 144t-140 47q-119 0 -228 -92 t-128 -197l-107 -602q-3 -18 -15.5 -30.5t-29.5 -12.5h-90q-15 0 -25 10t-10 25zM379 1294v9q27 108 100 169.5t156 61.5q43 0 97 -33t101 -65.5t74 -32.5q71 0 127 110q12 21 35 21h57q10 0 19.5 -9t9.5 -20q0 -1 -1 -4t-1 -4q-32 -108 -103.5 -174t-152.5 -66 q-39 0 -79.5 21t-69 46t-63.5 46t-64 21q-30 0 -54.5 -20.5t-37.5 -45t-30 -45t-34 -20.5h-57q-13 0 -21 9.5t-8 24.5z" />
<glyph unicode="&#xf2;" d="M102 422q0 142 51 267t136 212.5t199 138t237 50.5q198 0 325.5 -126.5t127.5 -324.5q0 -143 -52 -268t-138.5 -211t-200.5 -135.5t-236 -49.5q-198 0 -323.5 124.5t-125.5 322.5zM279 436q0 -143 73.5 -225t204.5 -82q84 0 163.5 36.5t142 100t100.5 158t38 203.5 q0 145 -75 228t-205 83q-82 0 -161.5 -37t-141.5 -101.5t-100.5 -159.5t-38.5 -204zM618 1532q0 15 11 26t26 11h111q17 0 29.5 -11t17.5 -28l61 -230q3 -6 3 -10q0 -14 -11 -24.5t-26 -10.5h-41q-39 0 -54 31l-122 230q-5 7 -5 16z" />
<glyph unicode="&#xf3;" d="M102 422q0 142 51 267t136 212.5t199 138t237 50.5q198 0 325.5 -126.5t127.5 -324.5q0 -143 -52 -268t-138.5 -211t-200.5 -135.5t-236 -49.5q-198 0 -323.5 124.5t-125.5 322.5zM279 436q0 -143 73.5 -225t204.5 -82q84 0 163.5 36.5t142 100t100.5 158t38 203.5 q0 145 -75 228t-205 83q-82 0 -161.5 -37t-141.5 -101.5t-100.5 -159.5t-38.5 -204zM670 1282q0 9 6 18l143 230q24 39 64 39h108q12 0 19.5 -7t7.5 -18q0 -13 -12 -28l-207 -230q-28 -31 -62 -31h-39q-28 0 -28 27z" />
<glyph unicode="&#xf4;" d="M102 422q0 142 51 267t136 212.5t199 138t237 50.5q198 0 325.5 -126.5t127.5 -324.5q0 -143 -52 -268t-138.5 -211t-200.5 -135.5t-236 -49.5q-198 0 -323.5 124.5t-125.5 322.5zM279 436q0 -143 73.5 -225t204.5 -82q84 0 163.5 36.5t142 100t100.5 158t38 203.5 q0 145 -75 228t-205 83q-82 0 -161.5 -37t-141.5 -101.5t-100.5 -159.5t-38.5 -204zM487 1280q0 9 11 27l196 221q33 41 76 41h102q38 0 58 -41l119 -221q4 -12 4 -17q0 -14 -10 -24.5t-25 -10.5h-72q-39 0 -57 37l-82 162l-139 -162q-27 -37 -70 -37h-86q-25 0 -25 25z" />
<glyph unicode="&#xf5;" d="M102 422q0 142 51 267t136 212.5t199 138t237 50.5q198 0 325.5 -126.5t127.5 -324.5q0 -143 -52 -268t-138.5 -211t-200.5 -135.5t-236 -49.5q-198 0 -323.5 124.5t-125.5 322.5zM279 436q0 -143 73.5 -225t204.5 -82q84 0 163.5 36.5t142 100t100.5 158t38 203.5 q0 145 -75 228t-205 83q-82 0 -161.5 -37t-141.5 -101.5t-100.5 -159.5t-38.5 -204zM403 1294v9q27 108 100 169.5t156 61.5q43 0 97 -33t101.5 -65.5t74.5 -32.5q71 0 127 110q12 21 35 21h57q11 0 20 -9t9 -20q0 -1 -1 -4t-1 -4q-32 -108 -103.5 -174t-152.5 -66 q-39 0 -79.5 21t-69 46t-64 46t-64.5 21q-30 0 -54.5 -20.5t-37.5 -45t-30 -45t-34 -20.5h-57q-13 0 -21 9.5t-8 24.5z" />
<glyph unicode="&#xf6;" d="M102 422q0 142 51 267t136 212.5t199 138t237 50.5q198 0 325.5 -126.5t127.5 -324.5q0 -143 -52 -268t-138.5 -211t-200.5 -135.5t-236 -49.5q-198 0 -323.5 124.5t-125.5 322.5zM279 436q0 -143 73.5 -225t204.5 -82q84 0 163.5 36.5t142 100t100.5 158t38 203.5 q0 145 -75 228t-205 83q-82 0 -161.5 -37t-141.5 -101.5t-100.5 -159.5t-38.5 -204zM485 1395q0 12 2 18q7 45 43.5 76t81.5 31q39 0 66 -25t27 -63q0 -49 -41 -87t-89 -38q-39 0 -64.5 25.5t-25.5 62.5zM893 1395q0 12 2 18q7 45 44.5 76t80.5 31q40 0 66 -25t26 -63 q0 -49 -39.5 -87t-89.5 -38q-38 0 -64 25.5t-26 62.5z" />
<glyph unicode="&#xf7;" d="M131 633v74q0 16 12 28.5t29 12.5h995q17 0 29 -12.5t12 -28.5v-74q0 -19 -12 -31t-29 -12h-995q-17 0 -29 12t-12 31zM535 281q0 52 35.5 88.5t86.5 36.5t88 -36.5t37 -88.5q0 -51 -37 -86t-88 -35t-86.5 35t-35.5 86zM535 1044q0 51 35.5 88t86.5 37t88 -37t37 -88 t-37 -85.5t-88 -34.5t-86.5 34.5t-35.5 85.5z" />
<glyph unicode="&#xf8;" d="M100 422q0 142 51 267t136 212.5t199.5 138t238.5 50.5q128 0 231 -58l15 17q12 17 32 29t39 12h58q20 0 20 -17q0 -11 -10 -24l-66 -82q132 -129 132 -328q0 -143 -52 -268t-138 -211t-199.5 -135.5t-235.5 -49.5q-125 0 -234 56l-8 -13q-13 -18 -34 -30.5t-37 -12.5 h-60q-20 0 -20 17q0 11 12 26l59 76q-129 126 -129 328zM276 436q0 -127 58 -207l526 676q-64 33 -139 33q-82 0 -162 -36.5t-143 -101t-101.5 -160t-38.5 -204.5zM418 160q60 -31 139 -31q84 0 163.5 36.5t141.5 100t99.5 159t37.5 204.5q0 123 -57 205z" />
<glyph unicode="&#xf9;" horiz-adv-x="1175" d="M145 266q0 50 13 123l110 633q5 19 18.5 31t30.5 12h89q14 0 24 -10t10 -23q0 -2 -1 -5t-1 -5l-104 -602q-10 -62 -10 -98q0 -97 42.5 -144t139.5 -47q119 0 229 92t129 197l105 602q5 19 18.5 31t30.5 12h88q14 0 24.5 -10t10.5 -25v-8l-172 -981q-3 -17 -17.5 -29 t-31.5 -12h-86q-15 0 -25 10t-10 25v8l6 35q1 5 5.5 26t8.5 39t4 19h-18q-66 -83 -158.5 -135t-195.5 -52q-149 0 -227.5 75t-78.5 216zM594 1532q0 15 11 26t26 11h110q17 0 29.5 -11t17.5 -28l62 -230q2 -4 2 -10q0 -14 -11 -24.5t-26 -10.5h-41q-38 0 -53 31l-123 230 q-4 6 -4 16z" />
<glyph unicode="&#xfa;" horiz-adv-x="1175" d="M145 266q0 50 13 123l110 633q5 19 18.5 31t30.5 12h89q14 0 24 -10t10 -23q0 -2 -1 -5t-1 -5l-104 -602q-10 -62 -10 -98q0 -97 42.5 -144t139.5 -47q119 0 229 92t129 197l105 602q5 19 18.5 31t30.5 12h88q14 0 24.5 -10t10.5 -25v-8l-172 -981q-3 -17 -17.5 -29 t-31.5 -12h-86q-15 0 -25 10t-10 25v8l6 35q1 5 5.5 26t8.5 39t4 19h-18q-66 -83 -158.5 -135t-195.5 -52q-149 0 -227.5 75t-78.5 216zM645 1282q0 9 6 18l144 230q24 39 63 39h109q12 0 19 -7t7 -18q0 -13 -12 -28l-207 -230q-28 -31 -61 -31h-39q-29 0 -29 27z" />
<glyph unicode="&#xfb;" horiz-adv-x="1175" d="M145 266q0 50 13 123l110 633q5 19 18.5 31t30.5 12h89q14 0 24 -10t10 -23q0 -2 -1 -5t-1 -5l-104 -602q-10 -62 -10 -98q0 -97 42.5 -144t139.5 -47q119 0 229 92t129 197l105 602q5 19 18.5 31t30.5 12h88q14 0 24.5 -10t10.5 -25v-8l-172 -981q-3 -17 -17.5 -29 t-31.5 -12h-86q-15 0 -25 10t-10 25v8l6 35q1 5 5.5 26t8.5 39t4 19h-18q-66 -83 -158.5 -135t-195.5 -52q-149 0 -227.5 75t-78.5 216zM467 1280q0 10 10 27l197 221q33 41 76 41h102q37 0 57 -41l119 -221q4 -12 4 -17q0 -14 -10 -24.5t-25 -10.5h-71q-40 0 -58 37 l-82 162l-139 -162q-27 -37 -69 -37h-86q-25 0 -25 25z" />
<glyph unicode="&#xfc;" horiz-adv-x="1175" d="M145 266q0 50 13 123l110 633q5 19 18.5 31t30.5 12h89q14 0 24 -10t10 -23q0 -2 -1 -5t-1 -5l-104 -602q-10 -62 -10 -98q0 -97 42.5 -144t139.5 -47q119 0 229 92t129 197l105 602q5 19 18.5 31t30.5 12h88q14 0 24.5 -10t10.5 -25v-8l-172 -981q-3 -17 -17.5 -29 t-31.5 -12h-86q-15 0 -25 10t-10 25v8l6 35q1 5 5.5 26t8.5 39t4 19h-18q-66 -83 -158.5 -135t-195.5 -52q-149 0 -227.5 75t-78.5 216zM461 1395q0 12 2 18q7 45 43.5 76t81.5 31q39 0 65.5 -25t26.5 -63q0 -49 -40.5 -87t-88.5 -38q-39 0 -64.5 25.5t-25.5 62.5zM868 1395 q0 12 2 18q7 45 44.5 76t80.5 31q40 0 66 -25t26 -63q0 -49 -39.5 -87t-89.5 -38q-38 0 -64 25.5t-26 62.5z" />
<glyph unicode="&#xfd;" horiz-adv-x="1034" d="M141 -383q0 11 6 23l218 380l-203 996v8q0 16 10.5 28.5t28.5 12.5h80q39 0 45 -37l118 -569q9 -45 17.5 -99.5t12.5 -85.5l5 -32h17q53 109 112 215l322 571q21 37 55 37h98q13 0 21 -7t8 -18q0 -6 -8 -22l-780 -1389q-25 -39 -60 -39h-94q-13 0 -21 8t-8 19zM580 1282 q0 9 6 18l143 230q24 39 64 39h108q12 0 19.5 -7t7.5 -18q0 -12 -13 -28l-206 -230q-28 -31 -62 -31h-39q-28 0 -28 27z" />
<glyph unicode="&#xfe;" horiz-adv-x="1224" d="M23 -373l323 1835q4 18 19 30.5t30 12.5h92q14 0 23.5 -10t9.5 -25v-6l-76 -430l-32 -157h16q66 92 171.5 152.5t225.5 60.5q161 0 264 -105t103 -297q0 -54 -14 -143q-30 -172 -121 -303.5t-214.5 -199t-258.5 -67.5q-105 0 -172 24.5t-138 72.5l-79 -445 q-3 -17 -17.5 -29t-30.5 -12h-90q-14 0 -24 10t-10 25v6zM303 238q40 -34 69 -53t85 -36.5t125 -17.5q82 0 159 36t137.5 100.5t97 164.5t36.5 219q0 133 -66 209t-186 76q-60 0 -124.5 -29.5t-122 -82.5t-102 -136t-61.5 -180z" />
<glyph unicode="&#xff;" horiz-adv-x="1034" d="M141 -383q0 11 6 23l218 380l-203 996v8q0 16 10.5 28.5t28.5 12.5h80q39 0 45 -37l118 -569q9 -45 17.5 -99.5t12.5 -85.5l5 -32h17q53 109 112 215l322 571q21 37 55 37h98q13 0 21 -7t8 -18q0 -6 -8 -22l-780 -1389q-25 -39 -60 -39h-94q-13 0 -21 8t-8 19zM389 1395 q0 12 2 18q7 45 43.5 76t81.5 31q39 0 65.5 -25t26.5 -63q0 -49 -40.5 -87t-88.5 -38q-39 0 -64.5 25.5t-25.5 62.5zM797 1395q0 12 2 18q7 45 44.5 76t80.5 31q40 0 66 -25t26 -63q0 -49 -39.5 -87t-89.5 -38q-38 0 -64 25.5t-26 62.5z" />
<glyph unicode="&#x152;" horiz-adv-x="2510" d="M152 588q0 174 66.5 336.5t179.5 284t273 194t337 72.5q172 0 307 -79t196 -210l45 231q3 14 13 23.5t22 9.5h957q15 0 25 -10t10 -25v-8l-15 -78q-3 -17 -17.5 -30t-31.5 -13h-811l-82 -463h713q15 0 25 -9t10 -23v-9l-15 -77q-3 -18 -17 -30.5t-32 -12.5h-713l-88 -500 h811q15 0 25 -10t10 -25v-8l-14 -78q-3 -17 -16.5 -29t-30.5 -12h-946q-17 0 -27 9t-10 24v8l37 223q-109 -132 -262.5 -210.5t-319.5 -78.5q-136 0 -251.5 47t-194.5 129t-123.5 195t-44.5 242zM336 600q0 -208 118.5 -334.5t317.5 -126.5q123 0 243.5 54t214.5 146 t152 225.5t58 281.5q0 210 -120.5 336.5t-318.5 126.5q-98 0 -195.5 -33.5t-181.5 -97t-149 -148.5t-102 -197t-37 -233z" />
<glyph unicode="&#x153;" horiz-adv-x="2039" d="M100 422q0 141 51 266.5t136 212.5t199 138t237 51q138 0 245.5 -66t151.5 -180q85 118 208.5 182t268.5 64q185 0 291.5 -101t106.5 -293q0 -104 -17 -161q-12 -39 -45 -39h-776q-6 -38 -6 -68q0 -138 84.5 -220.5t222.5 -82.5q139 0 320 78q12 4 18 4q26 0 33 -23 l18 -67q0 -2 1 -8t1 -7q0 -15 -16 -26q-66 -42 -178 -71.5t-213 -29.5q-159 0 -267 67.5t-153 190.5q-84 -122 -207.5 -190t-265.5 -68q-197 0 -323 125t-126 322zM276 436q0 -143 74 -225t205 -82q83 0 162.5 36t142 99t101 157.5t38.5 203.5q0 146 -74.5 230.5 t-205.5 84.5q-83 0 -162.5 -37.5t-142 -102.5t-100.5 -160.5t-38 -203.5zM1188 616h635q6 37 6 70q0 121 -64.5 188.5t-175.5 67.5q-135 0 -247 -87.5t-154 -238.5z" />
<glyph unicode="&#x178;" horiz-adv-x="1327" d="M197 1409q0 16 11 28.5t28 12.5h94q40 0 57 -35l336 -655l567 655q30 35 68 35h119q13 0 20.5 -8.5t7.5 -20.5q0 -13 -10 -26l-702 -807l-97 -545q-3 -19 -16.5 -31t-30.5 -12h-94q-15 0 -25 10t-10 25v8l96 545l-415 807q-4 8 -4 14zM604 1780q0 12 2 18q7 45 43.5 76 t81.5 31q39 0 65.5 -25t26.5 -63q0 -49 -40.5 -87t-88.5 -38q-39 0 -64.5 25.5t-25.5 62.5zM1012 1780q0 12 2 18q7 45 44.5 76t80.5 31q40 0 66 -25t26 -63q0 -49 -39.5 -87t-89.5 -38q-38 0 -64 25.5t-26 62.5z" />
<glyph unicode="&#x2c6;" horiz-adv-x="952" d="M360 1280q0 9 11 27l196 221q33 41 76 41h102q38 0 58 -41l119 -221q4 -12 4 -17q0 -14 -10 -24.5t-25 -10.5h-72q-39 0 -57 37l-82 162l-139 -162q-27 -37 -70 -37h-86q-25 0 -25 25z" />
<glyph unicode="&#x2dc;" horiz-adv-x="948" d="M274 1294v9q27 108 100 169.5t156 61.5q43 0 97 -33t101.5 -65.5t74.5 -32.5q71 0 127 110q12 21 35 21h57q10 0 19.5 -9t9.5 -20q0 -1 -1 -4t-1 -4q-32 -108 -103.5 -174t-152.5 -66q-39 0 -79.5 21t-69 46t-64 46t-64.5 21q-30 0 -54.5 -20.5t-37.5 -45t-30 -45 t-34 -20.5h-57q-13 0 -21 9.5t-8 24.5z" />
<glyph unicode="&#x2000;" horiz-adv-x="1050" />
<glyph unicode="&#x2001;" horiz-adv-x="2101" />
<glyph unicode="&#x2002;" horiz-adv-x="1050" />
<glyph unicode="&#x2003;" horiz-adv-x="2101" />
<glyph unicode="&#x2004;" horiz-adv-x="700" />
<glyph unicode="&#x2005;" horiz-adv-x="525" />
<glyph unicode="&#x2006;" horiz-adv-x="350" />
<glyph unicode="&#x2007;" horiz-adv-x="350" />
<glyph unicode="&#x2008;" horiz-adv-x="262" />
<glyph unicode="&#x2009;" horiz-adv-x="420" />
<glyph unicode="&#x200a;" horiz-adv-x="116" />
<glyph unicode="&#x2010;" horiz-adv-x="686" d="M84 557l12 68q3 17 18 29t33 12h502q15 0 24 -9.5t9 -23.5v-8l-12 -68q-3 -19 -16.5 -31t-30.5 -12h-502q-16 0 -28 12t-9 31z" />
<glyph unicode="&#x2011;" horiz-adv-x="686" d="M84 557l12 68q3 17 18 29t33 12h502q15 0 24 -9.5t9 -23.5v-8l-12 -68q-3 -19 -16.5 -31t-30.5 -12h-502q-16 0 -28 12t-9 31z" />
<glyph unicode="&#x2012;" horiz-adv-x="686" d="M84 557l12 68q3 17 18 29t33 12h502q15 0 24 -9.5t9 -23.5v-8l-12 -68q-3 -19 -16.5 -31t-30.5 -12h-502q-16 0 -28 12t-9 31z" />
<glyph unicode="&#x2013;" horiz-adv-x="1159" d="M84 551v8l12 66q3 17 18 29t31 12h977q15 0 24 -9.5t9 -23.5v-8l-12 -68q-3 -19 -16.5 -31t-30.5 -12h-977q-14 0 -24.5 10t-10.5 27z" />
<glyph unicode="&#x2014;" horiz-adv-x="1986" d="M84 551v8l12 66q3 17 18 29t31 12h1803q16 0 25 -9.5t9 -23.5v-8l-12 -68q-3 -19 -16.5 -31t-32.5 -12h-1802q-14 0 -24.5 10t-10.5 27z" />
<glyph unicode="&#x2018;" horiz-adv-x="485" d="M246 1094q0 77 70 206.5t182 235.5q10 10 26 10q19 0 35 -15t16 -28q0 -10 -10 -20q-57 -69 -97 -142t-40 -106q3 -19 32 -55t29 -68q0 -51 -44.5 -94t-96.5 -43q-47 0 -74.5 31t-27.5 88z" />
<glyph unicode="&#x2019;" horiz-adv-x="485" d="M229 1024q0 14 11 25q58 67 98.5 140t40.5 109q-4 16 -33 52t-29 69q0 49 42.5 92t97.5 43q46 0 75 -32.5t29 -91.5q0 -76 -71 -203.5t-181 -233.5q-13 -10 -26 -10q-12 0 -33 12.5t-21 28.5z" />
<glyph unicode="&#x201a;" horiz-adv-x="485" d="M-4 -301q0 15 10 25q58 67 98.5 140t40.5 109q-4 15 -32.5 51.5t-28.5 69.5q0 49 42 92t97 43q46 0 75.5 -33t29.5 -92q0 -76 -71 -203t-181 -233q-13 -10 -27 -10q-12 0 -32.5 12.5t-20.5 28.5z" />
<glyph unicode="&#x201c;" horiz-adv-x="878" d="M246 1094q0 77 70 206.5t182 235.5q10 10 26 10q19 0 35 -15t16 -28q0 -10 -10 -20q-57 -69 -97 -142t-40 -106q3 -19 32 -55t29 -68q0 -51 -44.5 -94t-96.5 -43q-47 0 -74.5 31t-27.5 88zM635 1094q0 77 70 206.5t182 235.5q10 10 26 10q19 0 35.5 -15t16.5 -28 q0 -9 -11 -20q-57 -69 -97 -142t-40 -106q3 -19 32.5 -55t29.5 -68q0 -51 -44.5 -94t-97.5 -43q-47 0 -74.5 31t-27.5 88z" />
<glyph unicode="&#x201d;" horiz-adv-x="876" d="M229 1026q0 14 11 25q58 67 98.5 140t40.5 109q-4 16 -33 52t-29 69q0 49 42.5 92t97.5 43q46 0 75 -32.5t29 -91.5q0 -76 -71 -203.5t-181 -233.5q-13 -10 -26 -10q-12 0 -33 12.5t-21 28.5zM621 1026q0 15 10 25q58 67 98.5 140t40.5 109q-4 15 -32.5 51.5t-28.5 69.5 q0 49 42 92t97 43q46 0 75 -32.5t29 -91.5q0 -76 -71 -203.5t-181 -233.5q-13 -10 -26 -10q-12 0 -32.5 12.5t-20.5 28.5z" />
<glyph unicode="&#x201e;" horiz-adv-x="878" d="M-4 -301q0 15 10 25q58 67 98.5 140t40.5 109q-4 15 -32.5 51.5t-28.5 69.5q0 49 42 92t97 43q46 0 75.5 -33t29.5 -92q0 -76 -71 -203t-181 -233q-13 -10 -27 -10q-12 0 -32.5 12.5t-20.5 28.5zM387 -301q0 15 10 25q58 67 99 140t41 109q-4 16 -33 52t-29 69 q0 49 42 92t97 43q46 0 75.5 -33t29.5 -92q0 -76 -71 -203t-181 -233q-13 -10 -27 -10q-12 0 -32.5 12.5t-20.5 28.5z" />
<glyph unicode="&#x2022;" horiz-adv-x="776" d="M141 633q0 28 6 55q22 127 127 218t230 91q112 0 185 -74t73 -184q0 -92 -53 -176t-138 -134t-176 -50q-110 0 -182 72.5t-72 181.5z" />
<glyph unicode="&#x2026;" horiz-adv-x="1720" d="M68 74q0 12 2 18q9 51 50 85t91 34q41 0 68.5 -27.5t27.5 -68.5q0 -55 -42.5 -97.5t-96.5 -42.5q-44 0 -72 28.5t-28 70.5zM692 74q0 12 2 18q9 50 50.5 84.5t91.5 34.5q41 0 68.5 -27.5t27.5 -68.5q0 -55 -42.5 -97.5t-96.5 -42.5q-44 0 -72.5 28.5t-28.5 70.5zM1319 74 q0 12 2 18q9 51 50 85t91 34q41 0 69 -27.5t28 -68.5q0 -55 -43 -97.5t-97 -42.5q-44 0 -72 28.5t-28 70.5z" />
<glyph unicode="&#x202f;" horiz-adv-x="420" />
<glyph unicode="&#x2039;" horiz-adv-x="794" d="M135 584q0 21 23 41l506 428q12 12 30 12q17 0 29 -12l43 -54q6 -6 6 -18q0 -26 -16 -39l-428 -362l272 -332q2 -2 6.5 -7.5t6 -7t5 -6t4.5 -7.5t2 -7.5t1 -9.5q0 -9 -13 -25l-63 -55q-16 -8 -23 -8q-19 0 -28 12l-353 428q-10 13 -10 29z" />
<glyph unicode="&#x203a;" horiz-adv-x="794" d="M63 199q0 25 17 39l428 362l-272 332q-2 2 -6.5 7.5t-6 7t-5 6t-4.5 7.5t-2 7.5t-1 9.5q0 9 12 24l64 56q16 8 22 8q20 0 29 -12l352 -428q10 -13 10 -29q0 -22 -22 -41l-506 -428q-12 -12 -31 -12q-16 0 -28 12l-43 53q-7 7 -7 19z" />
<glyph unicode="&#x205f;" horiz-adv-x="525" />
<glyph unicode="&#x20ac;" horiz-adv-x="1435" d="M37 526v9l10 49q3 16 16.5 28.5t30.5 12.5h129q10 143 41 213h-131q-15 0 -25 9.5t-10 24.5v9l11 51q3 17 16.5 29t30.5 12h155q103 228 310 367t462 139q118 0 226 -33.5t186 -93.5q12 -12 12 -31q0 -9 -10 -29l-49 -59q-16 -19 -41 -19q-14 0 -21 7q-120 92 -309 92 q-167 0 -321.5 -92t-243.5 -248h627q15 0 25 -10t10 -25v-8l-11 -51q-3 -17 -16.5 -29t-30.5 -12h-670q-40 -87 -40 -213h671q15 0 25 -10.5t10 -24.5v-8l-10 -50q-3 -17 -16.5 -28.5t-30.5 -11.5h-631q29 -164 141 -258.5t281 -94.5q177 0 354 117q9 6 23 6q22 0 32 -20 l27 -49q1 -2 4.5 -7.5t4 -6.5l2.5 -5t2.5 -6l1.5 -6t1 -8v-9q0 -30 -24 -43q-214 -127 -434 -127q-257 0 -418.5 142.5t-188.5 374.5h-161q-15 0 -25 9.5t-10 24.5z" />
<glyph unicode="&#x2122;" horiz-adv-x="1609" d="M203 1380v9l2 16q5 19 20 32t33 13h526q15 0 26 -10t11 -25q0 -2 -1 -5t-1 -5l-2 -16q-3 -19 -17.5 -31t-33.5 -12h-207l-110 -635q-3 -19 -18 -32t-34 -13h-30q-15 0 -24 10.5t-9 25.5v9l110 635h-204q-17 0 -27 9.5t-10 24.5zM852 702v9l121 694q5 19 20 32t33 13h96 q12 0 22.5 -9t12.5 -18l111 -481l280 481q5 9 19 18t26 9h101q14 0 24.5 -11t10.5 -26v-8l-121 -694q-3 -18 -19.5 -31.5t-32.5 -13.5h-24q-17 0 -27 10.5t-10 25.5v9l100 569h-14l-274 -471q-11 -22 -45 -27h-25q-37 0 -39 25l-119 479h-14l-100 -575q-3 -19 -19 -32 t-35 -13h-22q-17 0 -27 10.5t-10 25.5z" />
<glyph unicode="&#x25fc;" horiz-adv-x="1065" d="M0 0v1065h1065v-1065h-1065z" />
<glyph unicode="&#xfb01;" horiz-adv-x="1228" d="M135 956v9l12 59q3 17 17.5 29t30.5 12h135l18 106q30 173 140.5 271t291.5 98q140 0 228 -39q20 -10 20 -31q0 -12 -6 -24l-27 -51q-16 -29 -45 -29q-1 0 -65.5 10t-112.5 10q-210 0 -248 -200l-22 -121h305q13 0 24 -10.5t11 -24.5v-8l-13 -59q-3 -17 -17.5 -29 t-29.5 -12h-305l-155 -879q-3 -19 -17 -31t-31 -12h-86q-38 0 -38 35v8l155 879h-135q-14 0 -24.5 9.5t-10.5 24.5zM848 37v8l174 979q3 17 17.5 29t31.5 12h88q13 0 24 -10.5t11 -24.5v-8l-174 -979q-3 -18 -17 -30.5t-30 -12.5h-88q-16 0 -26.5 10t-10.5 27zM1069 1407 q0 47 38.5 84t86.5 37q39 0 65.5 -25t26.5 -61q0 -3 -1 -8.5t-1 -8.5q-7 -42 -43.5 -71t-81.5 -29q-38 0 -64 23.5t-26 58.5z" />
<glyph unicode="&#xfb02;" horiz-adv-x="1228" d="M135 956v9l12 59q3 17 17.5 29t30.5 12h135l18 106q30 173 140.5 271t291.5 98q140 0 228 -39q20 -10 20 -31q0 -12 -6 -24l-27 -51q-16 -29 -45 -29q-1 0 -65.5 10t-112.5 10q-210 0 -248 -200l-22 -121h305q13 0 24 -10.5t11 -24.5v-8l-13 -59q-3 -17 -17.5 -29 t-29.5 -12h-305l-155 -879q-3 -19 -17 -31t-31 -12h-86q-38 0 -38 35v8l155 879h-135q-14 0 -24.5 9.5t-10.5 24.5zM848 37v8l254 1434q3 17 17.5 29t31.5 12h88q15 0 25 -10t10 -25v-8l-254 -1434q-3 -19 -16.5 -31t-30.5 -12h-88q-16 0 -26.5 10t-10.5 27z" />
</font>
</defs>
</svg>
